<svg xmlns="http://www.w3.org/2000/svg" xmlns:xlink="http://www.w3.org/1999/xlink" width="200" zoomAndPan="magnify" viewBox="0 0 150 149.999998" height="200" preserveAspectRatio="xMidYMid meet" version="1.0"><defs><clipPath id="id1"><path d="M 67.785156 115.285156 L 110.097656 115.285156 L 110.097656 132.878906 L 67.785156 132.878906 Z M 67.785156 115.285156 " clip-rule="nonzero"/></clipPath><clipPath id="id2"><path d="M 40 110 L 84 110 L 84 140.28125 L 40 140.28125 Z M 40 110 " clip-rule="nonzero"/></clipPath><clipPath id="id3"><path d="M 62 45.03125 L 82 45.03125 L 82 63 L 62 63 Z M 62 45.03125 " clip-rule="nonzero"/></clipPath></defs><rect x="-15" width="180" fill="rgb(100%, 100%, 100%)" y="-15" height="179.999997" fill-opacity="1"/><rect x="-15" width="180" fill="rgb(21.958923%, 71.369934%, 100%)" y="-15" height="179.999997" fill-opacity="1"/><rect x="-15" width="180" fill="rgb(100%, 100%, 100%)" y="-15" height="179.999997" fill-opacity="1"/><rect x="-15" width="180" fill="rgb(21.958923%, 71.369934%, 100%)" y="-15" height="179.999997" fill-opacity="1"/><path fill="rgb(100%, 74.119568%, 34.899902%)" d="M 110.445312 52.980469 C 110.652344 52.980469 110.828125 52.90625 110.972656 52.757812 C 111.121094 52.613281 111.195312 52.4375 111.195312 52.230469 L 111.195312 49.980469 L 111.945312 49.980469 C 112.152344 49.980469 112.328125 49.90625 112.472656 49.757812 C 112.621094 49.613281 112.695312 49.4375 112.695312 49.230469 L 112.695312 46.980469 L 113.445312 46.980469 C 113.652344 46.980469 113.828125 46.90625 113.972656 46.757812 C 114.121094 46.613281 114.195312 46.4375 114.195312 46.230469 L 114.195312 39.5625 C 115.316406 39.003906 116.34375 38.300781 117.273438 37.457031 C 118.203125 36.609375 118.996094 35.652344 119.660156 34.585938 C 120.320312 33.519531 120.824219 32.382812 121.171875 31.175781 C 121.515625 29.96875 121.691406 28.734375 121.695312 27.480469 C 121.695312 20.035156 115.636719 13.980469 108.195312 13.980469 C 100.75 13.980469 94.695312 20.035156 94.695312 27.480469 C 94.695312 28.734375 94.871094 29.96875 95.214844 31.175781 C 95.5625 32.382812 96.066406 33.519531 96.726562 34.585938 C 97.390625 35.652344 98.183594 36.609375 99.113281 37.457031 C 100.042969 38.300781 101.070312 39.003906 102.195312 39.5625 L 102.195312 46.230469 C 102.195312 46.4375 102.265625 46.613281 102.414062 46.757812 C 102.558594 46.90625 102.738281 46.980469 102.945312 46.980469 L 103.695312 46.980469 L 103.695312 49.230469 C 103.695312 49.4375 103.765625 49.613281 103.914062 49.757812 C 104.058594 49.90625 104.238281 49.980469 104.445312 49.980469 L 105.195312 49.980469 L 105.195312 52.230469 C 105.195312 52.4375 105.265625 52.613281 105.414062 52.757812 C 105.558594 52.90625 105.738281 52.980469 105.945312 52.980469 C 106.152344 52.980469 106.328125 52.90625 106.472656 52.757812 C 106.621094 52.613281 106.695312 52.4375 106.695312 52.230469 L 106.695312 49.980469 L 109.695312 49.980469 L 109.695312 52.230469 C 109.695312 52.4375 109.765625 52.613281 109.914062 52.757812 C 110.058594 52.90625 110.238281 52.980469 110.445312 52.980469 Z M 103.253906 38.40625 C 102.203125 37.929688 101.242188 37.316406 100.367188 36.5625 C 99.496094 35.808594 98.746094 34.949219 98.117188 33.980469 C 97.492188 33.011719 97.015625 31.972656 96.6875 30.867188 C 96.359375 29.761719 96.195312 28.632812 96.195312 27.480469 C 96.195312 20.863281 101.578125 15.480469 108.195312 15.480469 C 114.808594 15.480469 120.195312 20.863281 120.195312 27.480469 C 120.191406 28.632812 120.027344 29.761719 119.699219 30.867188 C 119.371094 31.972656 118.894531 33.011719 118.269531 33.980469 C 117.644531 34.949219 116.894531 35.808594 116.019531 36.5625 C 115.144531 37.316406 114.183594 37.929688 113.132812 38.40625 C 112.839844 38.539062 112.691406 38.765625 112.695312 39.089844 L 112.695312 45.480469 L 110.445312 45.480469 L 110.445312 39.617188 L 112.644531 33.742188 C 112.699219 33.59375 112.699219 33.441406 112.65625 33.292969 C 112.671875 33.230469 112.695312 33.171875 112.695312 33.105469 C 112.695312 31.65625 111.515625 30.480469 110.070312 30.480469 C 109.332031 30.480469 108.671875 30.785156 108.195312 31.273438 C 107.679688 30.746094 107.054688 30.480469 106.320312 30.480469 C 104.871094 30.480469 103.695312 31.65625 103.695312 33.105469 C 103.695312 33.171875 103.714844 33.230469 103.730469 33.292969 C 103.6875 33.441406 103.6875 33.59375 103.738281 33.742188 L 105.941406 39.617188 L 105.941406 45.480469 L 103.695312 45.480469 L 103.695312 39.089844 C 103.695312 38.765625 103.546875 38.539062 103.253906 38.40625 Z M 107.394531 39.214844 L 105.160156 33.257812 C 105.175781 33.207031 105.195312 33.160156 105.195312 33.105469 C 105.195312 32.957031 105.222656 32.8125 105.277344 32.671875 C 105.335938 32.535156 105.417969 32.414062 105.523438 32.308594 C 105.628906 32.203125 105.75 32.121094 105.886719 32.066406 C 106.027344 32.007812 106.167969 31.980469 106.320312 31.980469 C 106.46875 31.980469 106.609375 32.007812 106.75 32.066406 C 106.886719 32.121094 107.007812 32.203125 107.113281 32.308594 C 107.21875 32.414062 107.300781 32.535156 107.359375 32.671875 C 107.414062 32.8125 107.445312 32.957031 107.445312 33.105469 C 107.445312 33.3125 107.515625 33.488281 107.664062 33.632812 C 107.808594 33.78125 107.988281 33.855469 108.195312 33.855469 C 108.402344 33.855469 108.578125 33.78125 108.722656 33.632812 C 108.871094 33.488281 108.945312 33.3125 108.945312 33.105469 C 108.945312 32.957031 108.972656 32.8125 109.027344 32.671875 C 109.085938 32.535156 109.167969 32.414062 109.273438 32.308594 C 109.378906 32.203125 109.5 32.121094 109.636719 32.066406 C 109.777344 32.007812 109.917969 31.980469 110.070312 31.980469 C 110.21875 31.980469 110.359375 32.007812 110.5 32.066406 C 110.636719 32.121094 110.757812 32.203125 110.863281 32.308594 C 110.96875 32.414062 111.050781 32.535156 111.109375 32.671875 C 111.164062 32.8125 111.195312 32.957031 111.195312 33.105469 C 111.195312 33.160156 111.214844 33.207031 111.226562 33.257812 L 108.992188 39.214844 C 108.960938 39.300781 108.945312 39.386719 108.945312 39.480469 L 108.945312 45.480469 L 107.445312 45.480469 L 107.445312 39.480469 C 107.445312 39.390625 107.425781 39.300781 107.394531 39.214844 Z M 111.195312 46.980469 L 111.195312 48.480469 L 105.195312 48.480469 L 105.195312 46.980469 Z M 108.945312 11.730469 L 108.945312 8.730469 C 108.945312 8.523438 108.871094 8.34375 108.722656 8.199219 C 108.578125 8.050781 108.402344 7.980469 108.195312 7.980469 C 107.988281 7.980469 107.808594 8.050781 107.664062 8.199219 C 107.515625 8.34375 107.445312 8.523438 107.445312 8.730469 L 107.445312 11.730469 C 107.445312 11.9375 107.515625 12.113281 107.664062 12.257812 C 107.808594 12.40625 107.988281 12.480469 108.195312 12.480469 C 108.402344 12.480469 108.578125 12.40625 108.722656 12.257812 C 108.871094 12.113281 108.945312 11.9375 108.945312 11.730469 Z M 123.195312 27.480469 C 123.195312 27.6875 123.265625 27.863281 123.414062 28.007812 C 123.558594 28.15625 123.738281 28.230469 123.945312 28.230469 L 126.945312 28.230469 C 127.152344 28.230469 127.328125 28.15625 127.472656 28.007812 C 127.621094 27.863281 127.695312 27.6875 127.695312 27.480469 C 127.695312 27.273438 127.621094 27.09375 127.472656 26.949219 C 127.328125 26.800781 127.152344 26.730469 126.945312 26.730469 L 123.945312 26.730469 C 123.738281 26.730469 123.558594 26.800781 123.414062 26.949219 C 123.265625 27.09375 123.195312 27.273438 123.195312 27.480469 Z M 89.445312 28.230469 L 92.445312 28.230469 C 92.652344 28.230469 92.828125 28.15625 92.972656 28.007812 C 93.121094 27.863281 93.195312 27.6875 93.195312 27.480469 C 93.195312 27.273438 93.121094 27.09375 92.972656 26.949219 C 92.828125 26.800781 92.652344 26.730469 92.445312 26.730469 L 89.445312 26.730469 C 89.238281 26.730469 89.058594 26.800781 88.914062 26.949219 C 88.765625 27.09375 88.695312 27.273438 88.695312 27.480469 C 88.695312 27.6875 88.765625 27.863281 88.914062 28.007812 C 89.058594 28.15625 89.238281 28.230469 89.445312 28.230469 Z M 114.21875 13.679688 C 114.554688 13.679688 114.785156 13.523438 114.914062 13.214844 L 116.0625 10.441406 C 116.144531 10.25 116.148438 10.058594 116.070312 9.863281 C 115.992188 9.667969 115.855469 9.53125 115.660156 9.449219 C 115.46875 9.371094 115.273438 9.371094 115.082031 9.453125 C 114.886719 9.535156 114.753906 9.675781 114.675781 9.871094 L 113.527344 12.640625 C 113.480469 12.757812 113.460938 12.878906 113.472656 13 C 113.488281 13.125 113.527344 13.242188 113.597656 13.34375 C 113.667969 13.449219 113.757812 13.53125 113.867188 13.589844 C 113.976562 13.648438 114.09375 13.679688 114.21875 13.679688 Z M 122.457031 34.199219 L 125.230469 35.347656 C 125.421875 35.429688 125.613281 35.429688 125.804688 35.351562 C 125.996094 35.269531 126.128906 35.132812 126.207031 34.941406 C 126.289062 34.75 126.289062 34.558594 126.207031 34.367188 C 126.128906 34.175781 125.992188 34.042969 125.800781 33.960938 L 123.03125 32.8125 C 122.839844 32.738281 122.648438 32.742188 122.460938 32.820312 C 122.273438 32.902344 122.140625 33.035156 122.0625 33.226562 C 121.984375 33.414062 121.984375 33.601562 122.058594 33.792969 C 122.136719 33.980469 122.269531 34.117188 122.457031 34.199219 Z M 90.582031 20.996094 L 93.355469 22.144531 C 93.546875 22.226562 93.738281 22.226562 93.929688 22.148438 C 94.121094 22.066406 94.257812 21.929688 94.335938 21.738281 C 94.414062 21.546875 94.414062 21.355469 94.335938 21.164062 C 94.257812 20.972656 94.121094 20.839844 93.929688 20.757812 L 91.15625 19.609375 C 90.964844 19.53125 90.773438 19.53125 90.582031 19.609375 C 90.390625 19.6875 90.257812 19.824219 90.175781 20.015625 C 90.097656 20.207031 90.097656 20.398438 90.175781 20.589844 C 90.257812 20.78125 90.390625 20.917969 90.582031 20.996094 Z M 118.800781 15.8125 C 118.652344 15.957031 118.582031 16.136719 118.582031 16.34375 C 118.582031 16.550781 118.652344 16.726562 118.800781 16.875 C 118.949219 17.019531 119.125 17.09375 119.332031 17.09375 C 119.539062 17.09375 119.714844 17.019531 119.863281 16.871094 L 121.984375 14.75 C 122.125 14.605469 122.195312 14.429688 122.195312 14.222656 C 122.191406 14.019531 122.117188 13.84375 121.972656 13.699219 C 121.828125 13.554688 121.65625 13.484375 121.449219 13.480469 C 121.246094 13.480469 121.070312 13.550781 120.921875 13.691406 Z M 94.933594 41.488281 C 95.140625 41.488281 95.320312 41.414062 95.464844 41.269531 L 97.585938 39.148438 C 97.730469 39 97.800781 38.824219 97.796875 38.621094 C 97.796875 38.414062 97.722656 38.242188 97.578125 38.097656 C 97.433594 37.953125 97.257812 37.878906 97.054688 37.875 C 96.847656 37.875 96.671875 37.945312 96.527344 38.085938 L 94.40625 40.207031 C 94.171875 40.445312 94.117188 40.714844 94.242188 41.023438 C 94.371094 41.332031 94.601562 41.488281 94.933594 41.488281 Z M 120.921875 41.265625 C 121.066406 41.414062 121.246094 41.488281 121.453125 41.488281 C 121.660156 41.488281 121.835938 41.414062 121.984375 41.265625 C 122.128906 41.121094 122.203125 40.945312 122.203125 40.738281 C 122.203125 40.53125 122.128906 40.351562 121.984375 40.207031 L 119.863281 38.085938 C 119.714844 37.945312 119.539062 37.875 119.335938 37.875 C 119.128906 37.878906 118.957031 37.949219 118.8125 38.09375 C 118.664062 38.238281 118.59375 38.414062 118.589844 38.617188 C 118.589844 38.824219 118.660156 39 118.800781 39.144531 Z M 94.40625 13.691406 C 94.257812 13.835938 94.1875 14.015625 94.1875 14.222656 C 94.1875 14.429688 94.257812 14.605469 94.40625 14.75 L 96.527344 16.871094 C 96.671875 17.019531 96.851562 17.09375 97.058594 17.09375 C 97.265625 17.09375 97.441406 17.019531 97.589844 16.871094 C 97.734375 16.726562 97.808594 16.550781 97.808594 16.34375 C 97.808594 16.136719 97.734375 15.957031 97.589844 15.8125 L 95.464844 13.691406 C 95.320312 13.542969 95.144531 13.472656 94.9375 13.472656 C 94.730469 13.472656 94.550781 13.542969 94.40625 13.691406 Z M 125.230469 19.609375 L 122.457031 20.757812 C 122.269531 20.839844 122.136719 20.976562 122.058594 21.164062 C 121.984375 21.355469 121.984375 21.542969 122.0625 21.734375 C 122.140625 21.921875 122.273438 22.058594 122.460938 22.136719 C 122.648438 22.21875 122.839844 22.21875 123.03125 22.144531 L 125.800781 20.996094 C 125.988281 20.914062 126.121094 20.78125 126.199219 20.589844 C 126.277344 20.398438 126.273438 20.210938 126.195312 20.023438 C 126.117188 19.832031 125.984375 19.699219 125.796875 19.617188 C 125.609375 19.539062 125.417969 19.535156 125.230469 19.609375 Z M 93.355469 32.8125 L 90.582031 33.960938 C 90.394531 34.042969 90.261719 34.179688 90.1875 34.367188 C 90.109375 34.558594 90.109375 34.746094 90.1875 34.9375 C 90.265625 35.125 90.398438 35.261719 90.589844 35.339844 C 90.777344 35.421875 90.964844 35.421875 91.15625 35.347656 L 93.929688 34.199219 C 94.117188 34.117188 94.25 33.980469 94.324219 33.792969 C 94.402344 33.601562 94.402344 33.414062 94.324219 33.226562 C 94.246094 33.035156 94.113281 32.902344 93.921875 32.820312 C 93.734375 32.742188 93.546875 32.738281 93.355469 32.8125 Z M 102.167969 13.679688 C 102.292969 13.679688 102.410156 13.648438 102.519531 13.589844 C 102.628906 13.53125 102.71875 13.449219 102.789062 13.34375 C 102.859375 13.242188 102.902344 13.125 102.914062 13 C 102.925781 12.878906 102.90625 12.757812 102.859375 12.640625 L 101.710938 9.871094 C 101.628906 9.683594 101.492188 9.550781 101.304688 9.472656 C 101.113281 9.394531 100.925781 9.398438 100.734375 9.476562 C 100.546875 9.554688 100.414062 9.6875 100.332031 9.875 C 100.253906 10.0625 100.25 10.253906 100.324219 10.441406 L 101.472656 13.214844 C 101.601562 13.523438 101.832031 13.679688 102.167969 13.679688 Z M 102.167969 13.679688 " fill-opacity="1" fill-rule="nonzero"/><path fill="rgb(26.269531%, 8.628845%, 26.669312%)" d="M 63.617188 56.453125 C 63.617188 56.453125 61.832031 59.824219 61.78125 60.824219 C 61.726562 61.820312 62.710938 72.726562 61.78125 75.730469 C 60.851562 78.734375 64.6875 76.472656 66.160156 75.730469 C 67.632812 74.988281 72.03125 70.328125 72.039062 69.222656 C 72.050781 68.121094 63.617188 56.453125 63.617188 56.453125 " fill-opacity="1" fill-rule="nonzero"/><path fill="rgb(98.039246%, 72.938538%, 26.669312%)" d="M 53.800781 129.113281 C 53.800781 129.113281 53.878906 132.472656 54.109375 133.875 C 54.34375 135.28125 55 137.152344 55.621094 138.285156 C 56.242188 139.417969 56.589844 139.730469 57.015625 139.574219 C 57.441406 139.417969 57.714844 139.222656 57.714844 139.222656 C 57.714844 139.222656 58.328125 139.300781 59.21875 138.015625 C 60.109375 136.726562 61.707031 136.597656 62.539062 135.898438 C 64.183594 134.527344 65.269531 132.546875 65.269531 132.546875 L 53.800781 129.113281 " fill-opacity="1" fill-rule="nonzero"/><path fill="rgb(98.039246%, 72.938538%, 26.669312%)" d="M 88.386719 138.117188 C 88.386719 138.117188 89.445312 139.261719 89.625 139.285156 C 89.808594 139.3125 92.957031 138.949219 94.429688 139.105469 C 95.902344 139.261719 97.660156 138.765625 99.878906 138.972656 C 102.101562 139.183594 105.847656 139.078125 106.234375 137.621094 C 106.621094 136.164062 106.054688 133.847656 105.226562 132.964844 C 104.402344 132.078125 103.808594 129.84375 101.585938 129.84375 C 99.363281 129.84375 93.734375 132.078125 91.175781 131.558594 C 88.617188 131.039062 88 132.261719 88.023438 133.433594 C 88.050781 134.605469 87.894531 137.179688 88.386719 138.117188 " fill-opacity="1" fill-rule="nonzero"/><path fill="rgb(95.289612%, 38.42926%, 44.309998%)" d="M 79.332031 137.699219 C 79.332031 137.699219 81 138.011719 82.082031 138.558594 C 83.027344 139.035156 84.765625 139.714844 86.375 139.472656 C 86.617188 139.4375 86.851562 139.378906 87.082031 139.300781 C 88.863281 138.675781 89.042969 138.613281 89.042969 138.613281 C 89.042969 138.613281 87.972656 136.0625 88.207031 135.398438 C 88.4375 134.734375 88.785156 135.046875 88.554688 134.304688 C 88.320312 133.5625 88.4375 132.273438 85.996094 132.273438 C 83.554688 132.273438 78.441406 132.511719 78.441406 132.511719 L 79.332031 137.699219 " fill-opacity="1" fill-rule="nonzero"/><g clip-path="url(#id1)"><path fill="rgb(78.039551%, 19.60907%, 22.749329%)" d="M 67.953125 125.675781 C 67.953125 125.675781 70.640625 125.132812 73.6875 125.132812 C 76.738281 125.132812 83.296875 122.949219 85.46875 122.53125 C 87.09375 122.21875 90.367188 120.597656 91.910156 119.800781 C 92.242188 119.628906 92.222656 119.148438 91.878906 119.007812 C 90.707031 118.53125 88.761719 117.726562 88.617188 117.5625 C 88.410156 117.328125 93.417969 117.9375 94.40625 118.058594 C 94.988281 118.128906 95.828125 113.65625 103.910156 116.160156 C 111.378906 118.472656 110.417969 122.429688 109.4375 124.820312 C 108.457031 127.214844 106.183594 130.335938 104.582031 130.648438 C 102.980469 130.960938 102.773438 130.128906 99.933594 131.273438 C 97.089844 132.417969 92.078125 132.78125 88.691406 132.566406 C 85.300781 132.351562 79.269531 133.25 76.53125 132.625 C 73.792969 132.003906 67.953125 125.675781 67.953125 125.675781 " fill-opacity="1" fill-rule="nonzero"/></g><g clip-path="url(#id2)"><path fill="rgb(78.039551%, 19.60907%, 22.749329%)" d="M 82.503906 132.058594 C 83.003906 132.226562 83.222656 132.820312 82.929688 133.261719 C 82.898438 133.308594 82.867188 133.355469 82.832031 133.40625 C 82.53125 133.84375 81.535156 136.734375 80.058594 138.492188 C 78.886719 139.878906 77.140625 140.253906 77.140625 140.253906 C 77.140625 140.253906 61.980469 133.960938 60.542969 132.859375 C 56.410156 129.703125 52.019531 130.128906 50.3125 129.246094 C 46.328125 127.175781 42.769531 125.757812 41.375 122.296875 C 39.980469 118.839844 39.59375 116.472656 41.375 114.804688 C 43.15625 113.140625 43.339844 112.335938 47.417969 112.335938 C 51.5 112.335938 53.976562 113.207031 55.1875 114.558594 C 56.402344 115.910156 56.089844 116.558594 57.679688 115.398438 C 59.507812 114.058594 59.160156 114.308594 60.375 112.566406 C 61.613281 110.792969 60.4375 110.695312 62.683594 110.460938 C 64.230469 110.300781 68.796875 110.65625 71.496094 110.894531 C 72.222656 110.957031 72.488281 111.894531 71.902344 112.335938 L 62.433594 119.484375 C 61.984375 119.824219 62.011719 120.515625 62.492188 120.8125 C 64.105469 121.8125 67.296875 123.773438 69.039062 124.71875 C 71.441406 126.019531 76.011719 127.890625 77.847656 129.0625 C 79.371094 130.035156 80.945312 131.546875 82.503906 132.058594 " fill-opacity="1" fill-rule="nonzero"/></g><path fill="rgb(95.289612%, 38.42926%, 44.309998%)" d="M 70.539062 81.429688 C 70.539062 81.429688 65.316406 76.0625 65.527344 74.246094 C 65.738281 72.433594 66.050781 72.117188 66.875 72.0625 C 67.699219 72.011719 68.792969 71.90625 69.164062 70.402344 C 69.332031 69.707031 69.308594 68.671875 68.980469 67.628906 C 68.605469 66.417969 67.898438 64.832031 67.898438 64.832031 C 67.898438 64.832031 67.558594 65.359375 66.667969 65.085938 C 65.777344 64.8125 63.636719 61.582031 64.160156 60.960938 C 64.597656 60.4375 65.191406 60.511719 65.191406 60.511719 C 65.191406 60.511719 63.816406 54.113281 66.820312 51.28125 C 69.820312 48.453125 69.609375 46.425781 73.25 47.378906 C 76.890625 48.335938 78.75 49.703125 79.488281 51.28125 C 80.222656 52.863281 80.628906 54.308594 81.039062 55.359375 C 81.445312 56.414062 81.652344 63.195312 81.3125 64.804688 C 80.429688 68.96875 78.847656 69.25 78.847656 69.25 C 78.847656 69.25 78.707031 71.191406 78.960938 71.222656 C 79.03125 71.234375 79.148438 71.21875 79.3125 71.199219 C 79.726562 71.15625 80.417969 71.117188 81.25 71.515625 C 82.40625 72.074219 85.066406 74.089844 83.554688 77.722656 C 82.046875 81.351562 79.488281 83.691406 76.195312 83.222656 C 72.902344 82.753906 70.539062 81.429688 70.539062 81.429688 " fill-opacity="1" fill-rule="nonzero"/><g clip-path="url(#id3)"><path fill="rgb(26.269531%, 8.628845%, 26.669312%)" d="M 66.925781 47.140625 L 66.917969 47.144531 C 66.792969 47.234375 62.480469 50.4375 62.683594 55.359375 C 62.875 59.984375 67.628906 62.335938 68.332031 62.660156 C 68.371094 62.675781 68.40625 62.644531 68.398438 62.605469 C 68.214844 61.742188 66.875 55.183594 68.417969 53.4375 C 70.074219 51.5625 71.363281 49.742188 72.292969 48.910156 C 73.222656 48.078125 75.964844 48.519531 77.941406 51.703125 C 79.359375 53.992188 80.613281 56.230469 81.539062 56.472656 C 81.59375 56.488281 81.363281 55.632812 81.371094 55.574219 C 81.476562 54.460938 81.476562 51.335938 78.597656 49.066406 C 78.597656 49.066406 76.167969 46.878906 74.308594 46.253906 C 72.449219 45.632812 71.363281 45.0625 66.925781 47.140625 " fill-opacity="1" fill-rule="nonzero"/></g><path fill="rgb(98.039246%, 72.938538%, 26.669312%)" d="M 68.007812 71.929688 C 68.035156 71.925781 68.03125 71.890625 68.007812 71.886719 C 67.582031 71.820312 66.246094 71.625 66.09375 71.777344 C 65.914062 71.957031 65.628906 73.101562 64.417969 73.78125 C 63.203125 74.457031 60.230469 75.914062 59.714844 75.9375 C 59.199219 75.964844 58.628906 75.445312 57.597656 76.226562 C 56.5625 77.003906 55.273438 78.929688 55.195312 80.515625 C 55.117188 82.105469 55.816406 84.199219 55.816406 84.199219 C 55.816406 84.199219 55.601562 82.808594 61.664062 83.898438 C 61.664062 83.898438 63.476562 101.5625 62.398438 105.738281 C 61.316406 109.914062 60.902344 110.097656 60.929688 111.085938 C 60.953125 112.074219 86.695312 111.855469 86.695312 111.855469 C 86.695312 111.855469 85.453125 99.886719 86.34375 96.0625 C 87.238281 92.238281 87.957031 90.71875 87.957031 90.71875 C 87.957031 90.71875 88.339844 90.03125 88.558594 89.328125 C 88.71875 88.816406 89.117188 88.417969 89.636719 88.296875 L 89.660156 88.292969 C 91.621094 87.832031 93.195312 86.359375 93.796875 84.425781 L 94.003906 83.75 L 94.722656 83.28125 C 94.722656 83.28125 93.53125 81.195312 93.164062 79.339844 C 92.796875 77.488281 91.460938 74.65625 89.753906 74.035156 C 88.050781 73.410156 86.597656 73.820312 85.242188 73.175781 C 83.886719 72.53125 82.082031 71.652344 81.347656 71.398438 C 80.613281 71.144531 79.253906 71.183594 79.253906 71.183594 C 79.253906 71.183594 81.675781 71.398438 82.027344 72.453125 C 82.375 73.507812 82.625 75.359375 82.179688 76.726562 C 81.734375 78.09375 81.734375 77.957031 81.328125 78.695312 C 80.921875 79.4375 80.535156 80.257812 79.914062 80.785156 C 79.292969 81.3125 76.851562 82.402344 75.632812 82.402344 C 74.410156 82.402344 73.832031 81.863281 73.132812 81.636719 C 72.4375 81.410156 70.925781 80.628906 69.742188 79.261719 C 68.5625 77.898438 66.914062 75.105469 66.546875 74.269531 C 66.179688 73.429688 65.886719 73.039062 66.605469 72.53125 C 67.152344 72.144531 67.753906 71.984375 68.007812 71.929688 " fill-opacity="1" fill-rule="nonzero"/><path fill="rgb(98.039246%, 72.938538%, 26.669312%)" d="M 63.144531 116.160156 L 61.136719 116.160156 L 63.460938 124.222656 L 90.644531 124.222656 L 90.644531 121.496094 L 89.753906 116.160156 L 63.144531 116.160156 " fill-opacity="1" fill-rule="nonzero"/><path fill="rgb(26.269531%, 8.628845%, 26.669312%)" d="M 63.144531 113.113281 L 63.144531 116.898438 L 64.667969 122.011719 L 92.195312 121.464844 L 92.195312 117.667969 L 65.945312 112.179688 L 63.144531 113.113281 " fill-opacity="1" fill-rule="nonzero"/><path fill="rgb(31.369019%, 61.178589%, 72.158813%)" d="M 63.460938 113.699219 L 64.675781 117.667969 L 92.195312 117.667969 L 92.195312 113.699219 L 90.644531 112.179688 " fill-opacity="1" fill-rule="nonzero"/><path fill="rgb(26.269531%, 8.628845%, 26.669312%)" d="M 62.398438 107.5 L 62.398438 108.902344 L 61.820312 108.902344 L 63.332031 113.699219 L 90.644531 113.308594 L 90.644531 108.628906 L 64.417969 106.714844 L 62.398438 107.5 " fill-opacity="1" fill-rule="nonzero"/><path fill="rgb(31.369019%, 61.178589%, 72.158813%)" d="M 73.121094 99.171875 C 73.121094 99.171875 58.539062 101.875 58.511719 102.136719 C 58.488281 102.398438 58.460938 102.605469 58.65625 102.605469 C 58.847656 102.605469 59.183594 102.605469 59.183594 102.605469 L 59.03125 105.738281 C 59.03125 105.738281 57.917969 105.894531 57.945312 106.15625 C 57.972656 106.414062 64.621094 108.066406 66.042969 108.433594 C 67.464844 108.796875 78.132812 111.855469 78.539062 111.855469 C 78.945312 111.855469 92.003906 108.277344 92.351562 107.769531 C 92.699219 107.261719 90.78125 102.421875 87.199219 101.953125 C 83.613281 101.484375 73.121094 99.171875 73.121094 99.171875 " fill-opacity="1" fill-rule="nonzero"/><path fill="rgb(26.269531%, 8.628845%, 26.669312%)" d="M 79.410156 106.832031 L 79.386719 106.832031 L 58.488281 102.25 C 58.425781 102.238281 58.386719 102.175781 58.398438 102.109375 C 58.414062 102.046875 58.476562 102.007812 58.539062 102.019531 L 79.40625 106.59375 L 90.445312 103.730469 C 90.507812 103.714844 90.570312 103.75 90.585938 103.8125 C 90.605469 103.878906 90.566406 103.941406 90.503906 103.957031 L 79.4375 106.828125 L 79.410156 106.832031 " fill-opacity="1" fill-rule="nonzero"/><path fill="rgb(26.269531%, 8.628845%, 26.669312%)" d="M 78.402344 111.203125 L 78.371094 111.199219 L 59 105.855469 C 58.9375 105.835938 58.898438 105.773438 58.917969 105.707031 C 58.933594 105.644531 59 105.609375 59.0625 105.625 L 78.402344 110.964844 L 92.164062 107.265625 C 92.226562 107.246094 92.292969 107.285156 92.308594 107.347656 C 92.328125 107.410156 92.289062 107.476562 92.226562 107.492188 L 78.433594 111.199219 L 78.402344 111.203125 " fill-opacity="1" fill-rule="nonzero"/><path fill="rgb(26.269531%, 8.628845%, 26.669312%)" d="M 63.332031 113.820312 C 63.265625 113.820312 63.214844 113.765625 63.214844 113.699219 L 63.214844 108.628906 C 63.214844 108.5625 63.265625 108.511719 63.332031 108.511719 C 63.394531 108.511719 63.449219 108.5625 63.449219 108.628906 L 63.449219 113.699219 C 63.449219 113.765625 63.394531 113.820312 63.332031 113.820312 " fill-opacity="1" fill-rule="nonzero"/><path fill="rgb(26.269531%, 8.628845%, 26.669312%)" d="M 64.667969 117.785156 C 64.601562 117.785156 64.550781 117.734375 64.550781 117.667969 L 64.550781 113.699219 C 64.550781 113.636719 64.601562 113.582031 64.667969 113.582031 L 92.195312 113.582031 C 92.261719 113.582031 92.3125 113.636719 92.3125 113.699219 C 92.3125 113.765625 92.261719 113.820312 92.195312 113.820312 L 64.785156 113.820312 L 64.785156 117.667969 C 64.785156 117.734375 64.730469 117.785156 64.667969 117.785156 " fill-opacity="1" fill-rule="nonzero"/><path fill="rgb(26.269531%, 8.628845%, 26.669312%)" d="M 64.933594 122.125 C 64.867188 122.125 64.816406 122.070312 64.816406 122.007812 L 64.816406 117.667969 C 64.816406 117.601562 64.867188 117.550781 64.933594 117.550781 C 64.996094 117.550781 65.050781 117.601562 65.050781 117.667969 L 65.050781 122.007812 C 65.050781 122.070312 64.996094 122.125 64.933594 122.125 " fill-opacity="1" fill-rule="nonzero"/><path fill="rgb(95.289612%, 38.42926%, 44.309998%)" d="M 59.921875 83.613281 C 59.921875 83.613281 55.699219 83.300781 55.816406 84.199219 C 55.929688 85.097656 58.253906 89.296875 58.488281 91.082031 C 58.71875 92.863281 60.019531 98.910156 60.386719 99.378906 C 60.753906 99.847656 61.703125 100.472656 62.34375 101.40625 C 62.984375 102.34375 62.480469 103.652344 65.09375 103.652344 C 67.710938 103.652344 67.824219 103.945312 68.523438 102.832031 C 69.21875 101.71875 68.675781 99.632812 68.949219 98.304688 C 69.21875 96.980469 67.730469 92.511719 66.953125 91.242188 C 66.179688 89.972656 65.519531 86.96875 64.84375 85.097656 C 64.164062 83.222656 62.945312 79.535156 62.945312 77.039062 C 62.945312 74.539062 63.097656 73.703125 63.429688 73.175781 C 63.757812 72.648438 63.875 69.957031 63.875 69.019531 C 63.875 68.082031 63.855469 66.851562 63.855469 66.851562 C 63.855469 66.851562 64.917969 64.804688 64.589844 64.003906 C 64.261719 63.203125 63.445312 64.84375 63.058594 64.84375 C 62.671875 64.84375 61.492188 64.160156 61.78125 63.59375 C 62.070312 63.027344 62.828125 62.890625 63.292969 62.871094 C 63.757812 62.851562 64.394531 62.289062 64.300781 61.9375 C 64.203125 61.585938 62.515625 61.566406 61.898438 61.761719 C 61.277344 61.957031 60 62.714844 59.804688 62.914062 C 59.613281 63.105469 59.03125 64.023438 58.605469 64.804688 C 58.179688 65.585938 57.5 66.578125 57.34375 66.773438 C 57.191406 66.96875 56.804688 67.632812 57.132812 68.121094 C 57.460938 68.609375 58.214844 71.515625 58.371094 72.257812 C 58.527344 73 59.089844 75.925781 59.148438 77.3125 C 59.203125 78.695312 59.921875 83.613281 59.921875 83.613281 " fill-opacity="1" fill-rule="nonzero"/><path fill="rgb(95.289612%, 38.42926%, 44.309998%)" d="M 88.496094 87.261719 C 88.496094 87.261719 88.457031 87.691406 88.011719 91.082031 C 87.566406 94.484375 89.753906 99.183594 89.753906 99.183594 C 89.753906 99.183594 87.914062 98.402344 86.964844 98.597656 C 86.015625 98.792969 85.105469 99.945312 84.234375 100.433594 C 83.363281 100.921875 80.824219 102.421875 80.03125 102.617188 C 79.234375 102.8125 78.867188 103.359375 78.597656 103.398438 C 78.324219 103.4375 77.066406 103.515625 77.144531 103.945312 C 77.222656 104.375 77.648438 104.765625 78.285156 104.921875 C 78.925781 105.078125 79.507812 105.132812 79.816406 104.785156 C 80.128906 104.433594 81.039062 104.472656 81.890625 104.492188 C 82.742188 104.511719 83.246094 104.53125 83.246094 104.53125 C 83.246094 104.53125 83.207031 106.226562 83.128906 106.675781 C 83.050781 107.125 82.335938 108.902344 82.492188 109.835938 C 82.644531 110.773438 83.476562 110.714844 83.769531 110.304688 C 84.058594 109.894531 84.601562 107.730469 84.96875 107.105469 C 85.339844 106.480469 85.628906 104.84375 85.628906 104.84375 C 85.628906 104.84375 85.300781 107.007812 85.320312 107.867188 C 85.339844 108.726562 85.066406 109.039062 84.777344 109.445312 C 84.484375 109.855469 84.097656 111.085938 85.105469 111.085938 C 86.113281 111.085938 86.421875 110.539062 86.421875 110.539062 C 86.421875 110.539062 86.773438 111.027344 87.371094 110.460938 C 87.972656 109.894531 88.300781 109.699219 88.300781 109.699219 C 88.300781 109.699219 89.058594 110.109375 89.753906 109.445312 C 90.453125 108.78125 90.839844 108.222656 90.839844 107.78125 C 90.839844 107.339844 93.605469 107.234375 94.144531 107.78125 C 94.6875 108.328125 95.644531 108.066406 96.496094 107.105469 C 97.347656 106.140625 97.582031 105.675781 97.453125 103.699219 C 97.324219 101.71875 96.652344 96.726562 95.851562 95.140625 C 95.050781 93.550781 94.09375 87.855469 94.144531 85.617188 C 94.199219 83.378906 94.003906 83.75 94.003906 83.75 L 88.496094 87.261719 " fill-opacity="1" fill-rule="nonzero"/><path fill="rgb(26.269531%, 8.628845%, 26.669312%)" d="M 76.75 55.902344 L 76.71875 55.898438 C 76.660156 55.878906 76.621094 55.816406 76.636719 55.753906 C 76.789062 55.164062 77.167969 54.640625 77.679688 54.316406 C 78.195312 53.992188 78.828125 53.878906 79.421875 54 C 79.484375 54.011719 79.527344 54.078125 79.511719 54.140625 C 79.5 54.203125 79.4375 54.246094 79.375 54.230469 C 78.839844 54.121094 78.269531 54.226562 77.804688 54.515625 C 77.34375 54.808594 77 55.277344 76.863281 55.8125 C 76.851562 55.863281 76.800781 55.902344 76.75 55.902344 Z M 70.890625 58.148438 L 70.863281 58.148438 C 70.800781 58.132812 70.761719 58.070312 70.773438 58.003906 C 70.914062 57.382812 71.296875 56.820312 71.820312 56.460938 C 72.34375 56.097656 73.003906 55.945312 73.628906 56.039062 C 73.695312 56.050781 73.738281 56.109375 73.730469 56.175781 C 73.71875 56.238281 73.660156 56.28125 73.59375 56.273438 C 73.027344 56.1875 72.425781 56.324219 71.953125 56.652344 C 71.476562 56.980469 71.128906 57.492188 71.003906 58.058594 C 70.992188 58.113281 70.941406 58.148438 70.890625 58.148438 Z M 77.71875 62.007812 C 77.671875 62.007812 77.628906 61.976562 77.609375 61.929688 C 77.585938 61.871094 77.621094 61.800781 77.679688 61.777344 C 77.699219 61.769531 78.203125 61.566406 78.429688 60.785156 C 78.609375 60.167969 77.339844 59.570312 76.835938 59.390625 C 76.777344 59.371094 76.742188 59.304688 76.765625 59.242188 C 76.785156 59.179688 76.851562 59.148438 76.914062 59.167969 C 76.996094 59.199219 78.933594 59.894531 78.65625 60.851562 C 78.394531 61.753906 77.785156 61.988281 77.761719 62 Z M 78.492188 63.75 C 78.472656 63.75 78.453125 63.746094 78.4375 63.738281 C 77.480469 63.253906 76.308594 63.179688 75.300781 63.542969 C 75.238281 63.566406 75.171875 63.535156 75.148438 63.472656 C 75.128906 63.410156 75.160156 63.34375 75.21875 63.320312 C 76.289062 62.9375 77.53125 63.011719 78.542969 63.527344 C 78.601562 63.558594 78.625 63.628906 78.59375 63.6875 C 78.574219 63.726562 78.535156 63.75 78.492188 63.75 Z M 57.871094 66.132812 C 57.832031 66.132812 57.792969 66.113281 57.769531 66.082031 C 57.734375 66.027344 57.75 65.953125 57.804688 65.917969 C 57.816406 65.910156 58.9375 65.15625 59.40625 64.59375 C 59.882812 64.011719 60.503906 63.476562 61.78125 63.476562 C 61.84375 63.476562 61.898438 63.53125 61.898438 63.59375 C 61.898438 63.660156 61.84375 63.714844 61.78125 63.714844 C 60.601562 63.714844 60.027344 64.207031 59.585938 64.742188 C 59.09375 65.335938 57.980469 66.082031 57.933594 66.113281 C 57.914062 66.125 57.890625 66.132812 57.871094 66.132812 Z M 64.027344 66.613281 C 63.976562 66.613281 63.929688 66.578125 63.914062 66.523438 C 63.597656 65.320312 62.910156 64.9375 62.90625 64.9375 C 62.847656 64.90625 62.824219 64.832031 62.855469 64.777344 C 62.886719 64.71875 62.957031 64.695312 63.011719 64.726562 C 63.046875 64.742188 63.792969 65.152344 64.140625 66.464844 C 64.15625 66.527344 64.121094 66.589844 64.058594 66.609375 Z M 57.265625 68.511719 C 57.210938 68.511719 57.164062 68.472656 57.152344 68.414062 C 57.085938 68.085938 57.140625 67.386719 57.824219 67.09375 C 58.074219 66.988281 58.519531 66.699219 59.035156 66.363281 C 60.351562 65.507812 61.398438 64.863281 61.902344 64.980469 C 62.691406 65.164062 63.894531 66.714844 63.945312 66.78125 C 63.984375 66.832031 63.976562 66.90625 63.925781 66.945312 C 63.875 66.984375 63.800781 66.976562 63.761719 66.925781 C 63.75 66.910156 62.558594 65.375 61.851562 65.210938 C 61.398438 65.105469 60.105469 65.949219 59.164062 66.5625 C 58.636719 66.902344 58.183594 67.199219 57.914062 67.3125 C 57.238281 67.605469 57.375 68.339844 57.382812 68.371094 C 57.394531 68.433594 57.351562 68.496094 57.289062 68.507812 Z M 62.5 70.246094 C 62.347656 70.246094 62.214844 70.210938 62.121094 70.125 C 61.75 69.792969 61.890625 69.207031 61.957031 68.925781 C 61.96875 68.882812 61.976562 68.847656 61.980469 68.824219 C 61.984375 68.796875 61.953125 68.761719 61.90625 68.734375 C 61.84375 68.703125 61.753906 68.695312 61.710938 68.738281 L 61.667969 68.78125 C 61.496094 68.957031 61.171875 69.285156 61.191406 69.71875 C 61.195312 69.785156 61.144531 69.839844 61.078125 69.84375 C 61.011719 69.84375 60.960938 69.796875 60.957031 69.730469 C 60.933594 69.195312 61.316406 68.804688 61.503906 68.617188 L 61.542969 68.578125 C 61.671875 68.441406 61.871094 68.453125 62.011719 68.523438 C 62.15625 68.597656 62.234375 68.730469 62.210938 68.863281 C 62.207031 68.894531 62.195312 68.933594 62.1875 68.980469 C 62.125 69.238281 62.011719 69.714844 62.277344 69.949219 C 62.417969 70.078125 62.863281 69.996094 63.253906 69.777344 C 63.589844 69.585938 63.789062 69.347656 63.757812 69.167969 C 63.65625 68.601562 63.453125 68.082031 62.777344 67.246094 C 62.15625 66.480469 61.214844 67.007812 60.839844 67.269531 C 60.632812 67.414062 60.167969 67.617188 59.714844 67.820312 C 59.398438 67.957031 59.101562 68.089844 58.914062 68.1875 C 58.402344 68.460938 58.058594 69.210938 58.054688 69.214844 C 58.027344 69.277344 57.960938 69.300781 57.898438 69.273438 C 57.839844 69.246094 57.816406 69.175781 57.84375 69.117188 C 57.859375 69.085938 58.222656 68.289062 58.804688 67.980469 C 59 67.875 59.300781 67.742188 59.621094 67.601562 C 60.042969 67.417969 60.519531 67.207031 60.707031 67.074219 C 61.042969 66.84375 62.191406 66.152344 62.957031 67.097656 C 63.664062 67.96875 63.882812 68.539062 63.988281 69.128906 C 64.039062 69.414062 63.808594 69.734375 63.367188 69.984375 C 63.101562 70.132812 62.773438 70.246094 62.5 70.246094 Z M 66.171875 73.75 C 66.125 73.75 66.082031 73.722656 66.0625 73.671875 C 65.871094 73.167969 65.917969 72.582031 66.183594 72.113281 C 66.21875 72.054688 66.289062 72.035156 66.34375 72.066406 C 66.402344 72.101562 66.421875 72.171875 66.386719 72.226562 C 66.152344 72.640625 66.113281 73.148438 66.28125 73.589844 C 66.304688 73.652344 66.273438 73.71875 66.214844 73.742188 Z M 75.59375 83.949219 C 75.402344 83.949219 75.210938 83.933594 75.019531 83.902344 C 74.035156 83.75 73.199219 83.199219 72.289062 82.554688 C 71.054688 81.675781 69.632812 80.640625 68.40625 79.445312 C 67.085938 78.152344 66.113281 76.785156 65.519531 75.386719 C 65.496094 75.328125 65.523438 75.257812 65.582031 75.230469 C 65.640625 75.207031 65.710938 75.234375 65.734375 75.292969 C 66.316406 76.664062 67.269531 78.003906 68.570312 79.277344 C 69.785156 80.460938 71.195312 81.488281 72.421875 82.359375 C 73.308594 82.988281 74.121094 83.523438 75.054688 83.671875 C 76.339844 83.871094 77.652344 83.28125 78.710938 82.808594 C 79.75 82.339844 80.933594 81.808594 81.714844 80.871094 C 82.1875 80.3125 82.535156 79.589844 82.808594 78.605469 C 83.269531 76.960938 83.363281 75.199219 83.085938 73.511719 C 83.074219 73.449219 83.117188 73.386719 83.183594 73.375 C 83.246094 73.367188 83.304688 73.410156 83.316406 73.472656 C 83.601562 75.195312 83.503906 76.992188 83.035156 78.667969 C 82.75 79.6875 82.386719 80.4375 81.894531 81.023438 C 81.078125 82 79.871094 82.542969 78.804688 83.023438 C 77.875 83.441406 76.75 83.949219 75.59375 83.949219 Z M 88.457031 87.742188 L 88.441406 87.738281 C 88.375 87.730469 88.332031 87.671875 88.339844 87.609375 C 88.773438 84.203125 88.15625 77.019531 88.148438 76.945312 C 88.144531 76.882812 88.191406 76.824219 88.253906 76.816406 C 88.320312 76.8125 88.378906 76.859375 88.382812 76.925781 C 88.386719 76.980469 88.738281 81.035156 88.726562 84.507812 C 89.0625 83.230469 89.257812 81.914062 89.3125 80.589844 C 89.3125 80.527344 89.371094 80.484375 89.433594 80.480469 C 89.496094 80.480469 89.546875 80.535156 89.546875 80.601562 C 89.480469 82.175781 89.21875 83.734375 88.765625 85.242188 C 88.757812 85.269531 88.742188 85.289062 88.71875 85.304688 C 88.699219 86.171875 88.65625 86.976562 88.570312 87.636719 C 88.5625 87.699219 88.511719 87.742188 88.457031 87.742188 Z M 59.921875 94.96875 C 59.863281 94.96875 59.8125 94.925781 59.804688 94.867188 C 59.34375 91.65625 59.800781 83.6875 59.804688 83.605469 C 59.808594 83.539062 59.863281 83.488281 59.929688 83.496094 C 59.992188 83.5 60.042969 83.554688 60.039062 83.621094 C 60.035156 83.699219 59.578125 91.644531 60.039062 94.835938 C 60.046875 94.898438 60.003906 94.960938 59.9375 94.96875 Z M 96.425781 103.429688 C 96.371094 103.429688 96.320312 103.390625 96.3125 103.332031 C 96.199219 102.71875 95.703125 101.78125 93.957031 100.804688 C 92.394531 99.929688 89.679688 99.292969 89.652344 99.285156 C 89.589844 99.269531 89.550781 99.207031 89.5625 99.144531 C 89.578125 99.082031 89.640625 99.039062 89.703125 99.054688 C 89.730469 99.0625 92.476562 99.707031 94.070312 100.597656 C 95.898438 101.621094 96.421875 102.625 96.542969 103.289062 C 96.554688 103.355469 96.511719 103.414062 96.449219 103.425781 Z M 88.300781 109.816406 C 88.277344 109.816406 88.253906 109.808594 88.230469 109.792969 C 88.179688 109.753906 88.167969 109.679688 88.210938 109.628906 C 88.21875 109.617188 89.152344 108.375 89.226562 107.28125 C 89.300781 106.136719 89.554688 105.261719 89.566406 105.226562 C 89.582031 105.164062 89.648438 105.125 89.710938 105.144531 C 89.773438 105.164062 89.808594 105.230469 89.789062 105.292969 C 89.789062 105.300781 89.535156 106.179688 89.457031 107.296875 C 89.378906 108.460938 88.433594 109.71875 88.394531 109.773438 C 88.371094 109.804688 88.335938 109.816406 88.300781 109.816406 Z M 86.421875 110.65625 C 86.402344 110.65625 86.378906 110.652344 86.363281 110.640625 C 86.304688 110.605469 86.289062 110.53125 86.324219 110.476562 C 86.335938 110.457031 87.546875 108.496094 87.570312 107.496094 C 87.597656 106.46875 87.570312 105.527344 87.570312 105.515625 C 87.570312 105.453125 87.621094 105.398438 87.6875 105.394531 C 87.75 105.398438 87.804688 105.445312 87.804688 105.511719 C 87.804688 105.519531 87.832031 106.46875 87.804688 107.503906 C 87.78125 108.566406 86.574219 110.519531 86.523438 110.601562 C 86.5 110.636719 86.460938 110.65625 86.421875 110.65625 Z M 62.132812 120.679688 C 62.109375 120.679688 62.085938 120.671875 62.066406 120.660156 C 62.03125 120.636719 58.445312 118.257812 56.234375 116.519531 C 56.183594 116.480469 56.175781 116.40625 56.214844 116.355469 C 56.253906 116.304688 56.328125 116.292969 56.378906 116.335938 C 58.582031 118.066406 62.160156 120.441406 62.195312 120.464844 C 62.25 120.5 62.265625 120.574219 62.230469 120.628906 C 62.207031 120.660156 62.167969 120.679688 62.132812 120.679688 Z M 90.84375 122.128906 C 90.789062 122.128906 90.742188 122.09375 90.730469 122.039062 C 90.714844 121.972656 90.757812 121.910156 90.820312 121.898438 L 98.304688 120.226562 C 98.292969 120.199219 98.296875 120.167969 98.308594 120.140625 C 98.324219 120.105469 98.707031 119.296875 99.296875 118.902344 C 99.890625 118.503906 101.023438 118.546875 101.070312 118.550781 C 101.132812 118.550781 101.183594 118.605469 101.179688 118.671875 C 101.179688 118.738281 101.128906 118.777344 101.058594 118.785156 C 101.046875 118.78125 99.953125 118.742188 99.425781 119.097656 C 98.988281 119.394531 98.660156 119.96875 98.554688 120.171875 L 100.46875 119.742188 C 100.535156 119.730469 100.597656 119.769531 100.609375 119.832031 C 100.625 119.898438 100.585938 119.960938 100.523438 119.972656 L 90.871094 122.128906 Z M 83.054688 132.832031 C 83.03125 132.832031 83.011719 132.828125 82.996094 132.816406 L 69.863281 125.277344 C 69.804688 125.242188 69.785156 125.171875 69.816406 125.113281 C 69.847656 125.058594 69.921875 125.039062 69.976562 125.070312 L 83.109375 132.609375 C 83.167969 132.644531 83.1875 132.714844 83.15625 132.773438 C 83.132812 132.808594 83.09375 132.832031 83.054688 132.832031 Z M 88.71875 134.875 C 88.675781 134.875 88.636719 134.851562 88.613281 134.8125 C 88.582031 134.757812 88.601562 134.6875 88.660156 134.652344 C 89.308594 134.285156 89.945312 133.882812 90.5625 133.457031 C 90.175781 133.457031 89.714844 133.5 89.296875 133.546875 C 88.988281 133.578125 88.699219 133.605469 88.457031 133.617188 C 88.402344 133.613281 88.339844 133.566406 88.335938 133.503906 C 88.335938 133.4375 88.382812 133.382812 88.449219 133.378906 C 88.683594 133.371094 88.96875 133.34375 89.273438 133.3125 C 89.832031 133.253906 90.46875 133.1875 90.917969 133.246094 C 90.964844 133.253906 91.003906 133.289062 91.015625 133.335938 C 91.027344 133.382812 91.007812 133.433594 90.96875 133.460938 C 90.265625 133.960938 89.527344 134.433594 88.773438 134.859375 C 88.757812 134.871094 88.734375 134.875 88.71875 134.875 Z M 103.375 139.109375 C 103.324219 139.109375 103.277344 139.078125 103.261719 139.023438 C 103.246094 138.960938 103.28125 138.894531 103.34375 138.878906 C 103.691406 138.785156 103.972656 138.546875 104.171875 138.175781 C 104.761719 137.082031 104.546875 135.085938 104.207031 134.015625 C 103.746094 132.570312 102.28125 131.480469 102.265625 131.472656 C 102.214844 131.433594 102.203125 131.359375 102.242188 131.304688 C 102.28125 131.253906 102.351562 131.242188 102.40625 131.28125 C 102.46875 131.324219 103.945312 132.421875 104.429688 133.945312 C 104.757812 134.976562 105.035156 137.066406 104.378906 138.289062 C 104.144531 138.71875 103.820312 138.992188 103.40625 139.105469 Z M 57.714844 139.339844 C 57.675781 139.339844 57.640625 139.320312 57.617188 139.289062 C 55.25 135.839844 54.820312 131.066406 54.816406 131.019531 C 54.8125 130.953125 54.859375 130.898438 54.925781 130.890625 C 54.988281 130.886719 55.046875 130.933594 55.050781 131 C 55.054688 131.046875 55.476562 135.757812 57.808594 139.15625 C 57.847656 139.207031 57.832031 139.28125 57.78125 139.320312 C 57.757812 139.332031 57.734375 139.339844 57.714844 139.339844 " fill-opacity="1" fill-rule="nonzero"/><path fill="rgb(79.219055%, 67.059326%, 79.998779%)" d="M 78.84375 70.960938 C 78.761719 70.421875 78.847656 69.25 78.847656 69.25 L 78.839844 69.386719 C 78.808594 69.910156 78.808594 70.4375 78.84375 70.960938 " fill-opacity="1" fill-rule="nonzero"/><path fill="rgb(76.078796%, 25.489807%, 41.178894%)" d="M 77.351562 71.121094 C 76.410156 71.121094 75.128906 70.988281 73.8125 70.433594 C 71.234375 69.351562 70.277344 66.492188 70.277344 66.492188 C 72.699219 68.96875 75.320312 69.460938 77.019531 69.460938 C 78.132812 69.460938 78.847656 69.25 78.847656 69.25 C 78.847656 69.25 78.761719 70.421875 78.84375 70.960938 C 78.84375 70.972656 78.847656 70.984375 78.847656 70.996094 C 78.847656 70.996094 78.257812 71.121094 77.351562 71.121094 " fill-opacity="1" fill-rule="nonzero"/><path fill="rgb(26.269531%, 8.628845%, 26.669312%)" d="M 74.285156 57.707031 C 74.285156 58.050781 74.007812 58.332031 73.664062 58.332031 C 73.320312 58.332031 73.042969 58.050781 73.042969 57.707031 C 73.042969 57.363281 73.320312 57.082031 73.664062 57.082031 C 74.007812 57.082031 74.285156 57.363281 74.285156 57.707031 " fill-opacity="1" fill-rule="nonzero"/><path fill="rgb(26.269531%, 8.628845%, 26.669312%)" d="M 79.589844 56.132812 C 79.589844 56.476562 79.3125 56.757812 78.96875 56.757812 C 78.625 56.757812 78.347656 56.476562 78.347656 56.132812 C 78.347656 55.785156 78.625 55.507812 78.96875 55.507812 C 79.3125 55.507812 79.589844 55.785156 79.589844 56.132812 " fill-opacity="1" fill-rule="nonzero"/></svg>