<svg xmlns="http://www.w3.org/2000/svg" xmlns:xlink="http://www.w3.org/1999/xlink" width="200" zoomAndPan="magnify" viewBox="0 0 150 149.999998" height="200" preserveAspectRatio="xMidYMid meet" version="1.0"><defs><clipPath id="id1"><path d="M 63 116 L 90 116 L 90 130.867188 L 63 130.867188 Z M 63 116 " clip-rule="nonzero"/></clipPath><clipPath id="id2"><path d="M 66 120 L 88 120 L 88 130.867188 L 66 130.867188 Z M 66 120 " clip-rule="nonzero"/></clipPath><clipPath id="id3"><path d="M 35.070312 19.117188 L 114 19.117188 L 114 111 L 35.070312 111 Z M 35.070312 19.117188 " clip-rule="nonzero"/></clipPath><clipPath id="id4"><path d="M 35.070312 19.117188 L 73 19.117188 L 73 111 L 35.070312 111 Z M 35.070312 19.117188 " clip-rule="nonzero"/></clipPath><clipPath id="id5"><path d="M 35.070312 23 L 60 23 L 60 103 L 35.070312 103 Z M 35.070312 23 " clip-rule="nonzero"/></clipPath><clipPath id="id6"><path d="M 35.070312 30 L 49 30 L 49 89 L 35.070312 89 Z M 35.070312 30 " clip-rule="nonzero"/></clipPath><clipPath id="id7"><path d="M 79 19.117188 L 114 19.117188 L 114 110 L 79 110 Z M 79 19.117188 " clip-rule="nonzero"/></clipPath><clipPath id="id8"><path d="M 40 19.117188 L 111 19.117188 L 111 110 L 40 110 Z M 40 19.117188 " clip-rule="nonzero"/></clipPath><clipPath id="id9"><path d="M 5.082031 71 L 65 71 L 65 91.644531 L 5.082031 91.644531 Z M 5.082031 71 " clip-rule="nonzero"/></clipPath><clipPath id="id10"><path d="M 85 33 L 144.929688 33 L 144.929688 53.902344 L 85 53.902344 Z M 85 33 " clip-rule="nonzero"/></clipPath><clipPath id="id11"><path d="M 81.058594 126.597656 L 105 126.597656 L 105 134.847656 L 81.058594 134.847656 Z M 81.058594 126.597656 " clip-rule="nonzero"/></clipPath><clipPath id="id12"><path d="M 31.21875 24.5 L 55.21875 24.5 L 55.21875 32.75 L 31.21875 32.75 Z M 31.21875 24.5 " clip-rule="nonzero"/></clipPath></defs><rect x="-15" width="180" fill="rgb(100%, 100%, 100%)" y="-15" height="179.999997" fill-opacity="1"/><rect x="-15" width="180" fill="rgb(36.079407%, 88.238525%, 90.19928%)" y="-15" height="179.999997" fill-opacity="1"/><rect x="-15" width="180" fill="rgb(100%, 100%, 100%)" y="-15" height="179.999997" fill-opacity="1"/><rect x="-15" width="180" fill="rgb(36.079407%, 88.238525%, 90.19928%)" y="-15" height="179.999997" fill-opacity="1"/><path fill="rgb(25.099182%, 25.099182%, 63.919067%)" d="M 66.976562 118.078125 C 67.046875 119.121094 67.039062 119.824219 66.886719 119.855469 C 66.730469 119.886719 66.449219 119.242188 66.113281 118.253906 C 65.777344 117.261719 65.386719 115.921875 64.917969 114.660156 C 64.507812 113.492188 63.996094 112.375 63.378906 111.304688 C 63.121094 110.871094 62.894531 110.511719 62.714844 110.261719 C 62.539062 110.011719 62.425781 109.855469 62.410156 109.824219 C 62.253906 109.597656 62.535156 109.113281 63.042969 108.742188 C 63.550781 108.371094 64.109375 108.292969 64.289062 108.5625 C 64.3125 108.59375 64.433594 108.777344 64.601562 109.089844 C 64.769531 109.402344 64.996094 109.824219 65.234375 110.347656 C 65.789062 111.59375 66.195312 112.882812 66.460938 114.222656 C 66.714844 115.496094 66.886719 116.78125 66.976562 118.078125 Z M 88.234375 107.738281 C 87.65625 107.523438 87.089844 107.601562 86.988281 107.910156 C 86.988281 107.949219 86.910156 108.15625 86.835938 108.492188 C 86.757812 108.832031 86.65625 109.308594 86.570312 109.878906 C 86.382812 111.234375 86.347656 112.589844 86.460938 113.953125 C 86.566406 115.25 86.753906 116.53125 87.027344 117.800781 C 87.246094 118.824219 87.449219 119.5 87.605469 119.488281 C 87.761719 119.476562 87.859375 118.777344 87.894531 117.738281 C 87.933594 116.703125 87.953125 115.308594 88.050781 113.953125 C 88.128906 112.714844 88.320312 111.496094 88.621094 110.292969 C 88.75 109.800781 88.871094 109.398438 88.972656 109.105469 C 89.074219 108.816406 89.140625 108.636719 89.148438 108.601562 C 89.230469 108.339844 88.824219 107.949219 88.234375 107.738281 Z M 88.234375 107.738281 " fill-opacity="1" fill-rule="nonzero"/><path fill="rgb(84.709167%, 39.608765%, 32.548523%)" d="M 82.242188 108.382812 C 82.1875 109.710938 82.132812 111.039062 82.078125 112.367188 C 78.214844 112.625 74.367188 112.71875 70.511719 112.347656 C 70.4375 111.195312 70.261719 110.0625 69.984375 108.941406 C 71.273438 108.859375 72.554688 108.78125 73.8125 108.734375 C 76.628906 108.625 79.4375 108.507812 82.242188 108.382812 Z M 82.242188 108.382812 " fill-opacity="1" fill-rule="nonzero"/><path fill="rgb(25.099182%, 25.099182%, 63.919067%)" d="M 88.796875 107.570312 C 88.820312 107.503906 88.84375 107.433594 88.867188 107.378906 C 88.84375 107.429688 88.820312 107.503906 88.796875 107.570312 Z M 88.796875 107.570312 " fill-opacity="1" fill-rule="nonzero"/><path fill="rgb(25.099182%, 25.099182%, 63.919067%)" d="M 88.703125 108.039062 C 88.707031 108.046875 88.707031 108.058594 88.703125 108.070312 C 88.703125 108.058594 88.703125 108.046875 88.703125 108.039062 Z M 88.703125 108.039062 " fill-opacity="1" fill-rule="nonzero"/><path fill="rgb(25.099182%, 25.099182%, 63.919067%)" d="M 88.78125 107.640625 L 88.796875 107.570312 Z M 88.78125 107.640625 " fill-opacity="1" fill-rule="nonzero"/><path fill="rgb(25.099182%, 25.099182%, 63.919067%)" d="M 88.726562 107.871094 C 88.726562 107.894531 88.726562 107.917969 88.726562 107.945312 C 88.726562 107.902344 88.726562 107.859375 88.75 107.820312 C 88.742188 107.835938 88.734375 107.851562 88.726562 107.871094 Z M 88.726562 107.871094 " fill-opacity="1" fill-rule="nonzero"/><path fill="rgb(25.099182%, 25.099182%, 63.919067%)" d="M 88.75 107.746094 C 88.75 107.769531 88.75 107.796875 88.75 107.820312 C 88.75 107.753906 88.777344 107.695312 88.792969 107.640625 C 88.769531 107.675781 88.757812 107.722656 88.75 107.746094 Z M 88.75 107.746094 " fill-opacity="1" fill-rule="nonzero"/><g clip-path="url(#id1)"><path fill="rgb(94.509888%, 74.508667%, 36.079407%)" d="M 89.816406 116.949219 L 89.730469 119.613281 C 89.308594 119.835938 88.863281 119.988281 88.390625 120.0625 C 88.039062 120.140625 87.683594 120.195312 87.328125 120.230469 C 87.386719 121.480469 87.445312 122.730469 87.503906 123.984375 C 87.585938 125.65625 88.3125 128.726562 86.34375 129.464844 C 85.003906 129.972656 83.214844 129.757812 81.808594 129.804688 C 80.148438 129.851562 78.492188 129.878906 76.839844 129.890625 C 73.605469 129.917969 68.703125 130.871094 67.359375 127.113281 C 67.328125 127.027344 67.300781 126.945312 67.273438 126.859375 C 66.628906 124.773438 67.121094 122.445312 66.289062 120.4375 C 65.664062 120.359375 65.046875 120.238281 64.433594 120.078125 C 64.097656 119.675781 63.871094 119.214844 63.761719 118.699219 C 63.761719 118.699219 63.183594 116.976562 67.308594 117.140625 C 68.179688 117.140625 69.453125 117.140625 69.464844 117.140625 L 70.753906 117.101562 C 73.375 117.03125 76 116.953125 78.625 116.871094 L 85.785156 116.640625 C 87.105469 116.605469 88.570312 116.386719 89.816406 116.949219 Z M 89.816406 116.949219 " fill-opacity="1" fill-rule="nonzero"/></g><g clip-path="url(#id2)"><path fill="rgb(84.709167%, 39.608765%, 32.548523%)" d="M 86.851562 120.914062 L 86.824219 121.136719 C 86.804688 121.339844 86.789062 121.546875 86.777344 121.753906 C 86.757812 122.175781 86.777344 122.597656 86.757812 123.023438 C 86.734375 123.445312 86.734375 123.9375 86.722656 124.394531 L 86.699219 125.269531 L 86.699219 125.832031 C 86.699219 126.050781 86.6875 126.273438 86.671875 126.492188 C 86.65625 126.710938 86.644531 126.964844 86.644531 127.199219 L 86.644531 128.613281 C 86.644531 128.855469 86.644531 129.097656 86.628906 129.339844 C 86.535156 129.394531 86.441406 129.441406 86.339844 129.480469 C 86.253906 129.515625 86.164062 129.542969 86.074219 129.570312 C 86.074219 129.335938 86.09375 129.097656 86.09375 128.867188 C 86.09375 128.398438 86.09375 127.925781 86.09375 127.460938 C 86.09375 127.238281 86.09375 127.011719 86.09375 126.789062 L 86.132812 126.089844 C 86.132812 125.824219 86.148438 125.558594 86.148438 125.296875 L 86.148438 124.671875 L 86.191406 123.265625 L 86.210938 122.472656 L 86.210938 121.890625 C 86.210938 121.660156 86.226562 121.433594 86.25 121.203125 C 86.25 121.109375 86.273438 121.011719 86.285156 120.914062 C 86.070312 120.914062 85.855469 120.894531 85.636719 120.894531 L 84.457031 120.894531 L 84.457031 120.949219 L 84.417969 121.261719 C 84.398438 121.464844 84.382812 121.671875 84.371094 121.878906 C 84.351562 122.300781 84.359375 122.722656 84.351562 123.148438 C 84.339844 123.570312 84.332031 124.0625 84.316406 124.523438 L 84.296875 125.378906 L 84.296875 125.945312 C 84.296875 126.164062 84.28125 126.382812 84.269531 126.605469 C 84.257812 126.828125 84.238281 127.078125 84.242188 127.3125 L 84.242188 128.726562 C 84.242188 129.089844 84.226562 129.457031 84.203125 129.824219 L 83.664062 129.824219 C 83.664062 129.53125 83.6875 129.253906 83.691406 128.96875 C 83.691406 128.5 83.691406 128.03125 83.691406 127.566406 C 83.691406 127.34375 83.691406 127.117188 83.691406 126.894531 L 83.730469 126.195312 C 83.730469 125.929688 83.742188 125.664062 83.746094 125.398438 L 83.746094 124.777344 L 83.792969 123.371094 L 83.808594 122.574219 L 83.808594 121.992188 C 83.808594 121.765625 83.832031 121.535156 83.851562 121.308594 C 83.851562 121.195312 83.875 121.078125 83.890625 120.964844 L 83.90625 120.894531 L 83.417969 120.894531 C 83.101562 120.894531 82.785156 120.894531 82.464844 120.871094 L 82.441406 121.054688 C 82.421875 121.257812 82.40625 121.464844 82.394531 121.667969 C 82.375 122.09375 82.394531 122.515625 82.371094 122.941406 C 82.347656 123.363281 82.355469 123.855469 82.335938 124.3125 L 82.320312 125.1875 L 82.320312 125.75 C 82.320312 125.972656 82.304688 126.1875 82.292969 126.410156 C 82.28125 126.632812 82.261719 126.882812 82.265625 127.117188 L 82.265625 128.53125 C 82.265625 128.96875 82.246094 129.402344 82.214844 129.839844 C 82.054688 129.839844 81.890625 129.839844 81.734375 129.839844 L 81.671875 129.839844 C 81.695312 129.484375 81.710938 129.128906 81.714844 128.777344 C 81.714844 128.308594 81.714844 127.839844 81.714844 127.371094 C 81.714844 127.148438 81.714844 126.925781 81.714844 126.703125 L 81.753906 126.003906 C 81.753906 125.734375 81.753906 125.46875 81.769531 125.207031 L 81.769531 124.585938 L 81.816406 123.179688 L 81.832031 122.382812 L 81.832031 121.796875 C 81.832031 121.570312 81.851562 121.339844 81.875 121.113281 C 81.875 121.03125 81.894531 120.949219 81.90625 120.867188 L 81.246094 120.835938 L 79.964844 120.769531 L 79.929688 121.0625 C 79.90625 121.265625 79.886719 121.472656 79.878906 121.675781 C 79.859375 122.101562 79.878906 122.523438 79.855469 122.949219 C 79.832031 123.375 79.839844 123.867188 79.824219 124.324219 L 79.804688 125.195312 L 79.804688 125.757812 C 79.804688 125.980469 79.789062 126.199219 79.773438 126.417969 C 79.761719 126.640625 79.746094 126.890625 79.75 127.128906 L 79.75 128.539062 C 79.75 128.992188 79.726562 129.449219 79.699219 129.898438 L 79.15625 129.898438 C 79.175781 129.527344 79.195312 129.152344 79.199219 128.78125 C 79.199219 128.3125 79.199219 127.84375 79.199219 127.375 C 79.199219 127.152344 79.199219 126.929688 79.199219 126.703125 L 79.238281 126.007812 C 79.238281 125.738281 79.238281 125.472656 79.253906 125.207031 L 79.253906 124.589844 L 79.296875 123.183594 L 79.3125 122.382812 L 79.3125 121.800781 C 79.3125 121.570312 79.335938 121.34375 79.355469 121.113281 C 79.363281 121 79.378906 120.886719 79.398438 120.773438 L 79.398438 120.746094 L 79.042969 120.726562 L 77.941406 120.65625 L 77.324219 120.609375 L 77.296875 120.855469 C 77.273438 121.0625 77.253906 121.265625 77.246094 121.472656 C 77.226562 121.898438 77.230469 122.320312 77.222656 122.746094 C 77.214844 123.171875 77.207031 123.660156 77.191406 124.121094 L 77.3125 124.929688 L 77.3125 125.492188 C 77.3125 125.710938 77.300781 125.933594 77.285156 126.15625 C 77.269531 126.375 77.253906 126.625 77.257812 126.863281 L 77.257812 128.273438 C 77.257812 128.734375 77.234375 129.195312 77.207031 129.65625 L 77.191406 129.886719 L 76.652344 129.886719 C 76.679688 129.429688 76.703125 128.976562 76.707031 128.519531 C 76.714844 128.0625 76.707031 127.585938 76.707031 127.117188 C 76.707031 126.890625 76.707031 126.667969 76.707031 126.445312 L 76.75 125.742188 C 76.75 125.480469 76.75 125.214844 76.75 124.949219 L 76.75 124.324219 L 76.792969 122.917969 L 76.808594 122.125 L 76.808594 121.542969 C 76.808594 121.316406 76.828125 121.085938 76.851562 120.859375 C 76.851562 120.75 76.871094 120.640625 76.890625 120.53125 C 76.546875 120.507812 76.203125 120.503906 75.859375 120.496094 L 74.839844 120.46875 L 74.839844 120.503906 L 74.804688 120.816406 C 74.78125 121.019531 74.765625 121.226562 74.757812 121.433594 C 74.734375 121.855469 74.742188 122.277344 74.734375 122.703125 C 74.722656 123.128906 74.714844 123.617188 74.703125 124.078125 L 74.679688 124.933594 L 74.679688 125.5 C 74.679688 125.71875 74.679688 125.9375 74.652344 126.160156 C 74.621094 126.382812 74.621094 126.632812 74.625 126.867188 L 74.625 128.28125 C 74.625 128.738281 74.601562 129.199219 74.574219 129.660156 L 74.554688 129.984375 L 74.015625 130.003906 L 74.015625 129.917969 C 74.039062 129.457031 74.0625 128.992188 74.070312 128.53125 C 74.074219 128.066406 74.070312 127.597656 74.070312 127.128906 C 74.070312 126.902344 74.070312 126.679688 74.070312 126.457031 L 74.109375 125.753906 C 74.109375 125.492188 74.109375 125.226562 74.109375 124.960938 L 74.109375 124.335938 L 74.15625 122.929688 L 74.171875 122.136719 L 74.171875 121.554688 C 74.171875 121.328125 74.195312 121.097656 74.21875 120.871094 C 74.226562 120.753906 74.238281 120.640625 74.257812 120.527344 L 74.257812 120.46875 C 73.679688 120.46875 73.117188 120.449219 72.546875 120.46875 C 72.546875 120.472656 72.546875 120.480469 72.546875 120.484375 C 72.546875 120.53125 72.527344 120.578125 72.519531 120.625 L 72.484375 120.941406 C 72.464844 121.144531 72.445312 121.351562 72.4375 121.554688 C 72.414062 121.980469 72.4375 122.402344 72.414062 122.828125 C 72.390625 123.25 72.394531 123.742188 72.378906 124.199219 L 72.363281 125.058594 L 72.363281 125.621094 C 72.363281 125.84375 72.34375 126.0625 72.332031 126.28125 C 72.320312 126.503906 72.304688 126.753906 72.304688 126.988281 L 72.304688 128.394531 C 72.304688 128.855469 72.28125 129.3125 72.25 129.777344 L 72.25 130.007812 C 72.070312 130.007812 71.890625 129.996094 71.710938 129.976562 C 71.738281 129.53125 71.761719 129.101562 71.765625 128.644531 C 71.773438 128.1875 71.765625 127.710938 71.765625 127.242188 C 71.765625 127.015625 71.765625 126.796875 71.765625 126.570312 L 71.804688 125.871094 C 71.804688 125.605469 71.804688 125.339844 71.824219 125.074219 L 71.824219 124.453125 L 71.867188 123.046875 L 71.886719 122.25 L 71.886719 121.667969 C 71.886719 121.4375 71.90625 121.210938 71.925781 120.980469 C 71.925781 120.867188 71.949219 120.753906 71.96875 120.640625 L 71.984375 120.558594 C 71.988281 120.53125 71.996094 120.503906 72.003906 120.480469 L 71.425781 120.496094 L 70.5 120.496094 L 70.5 120.511719 C 70.503906 120.535156 70.503906 120.558594 70.5 120.582031 C 70.5 120.628906 70.480469 120.675781 70.472656 120.722656 L 70.4375 121.035156 C 70.417969 121.238281 70.398438 121.445312 70.390625 121.648438 C 70.371094 122.074219 70.390625 122.496094 70.367188 122.921875 C 70.34375 123.347656 70.351562 123.839844 70.332031 124.296875 L 70.316406 125.171875 L 70.316406 125.730469 C 70.316406 125.953125 70.296875 126.171875 70.285156 126.394531 C 70.273438 126.613281 70.257812 126.863281 70.261719 127.101562 L 70.261719 128.511719 C 70.261719 128.921875 70.238281 129.328125 70.214844 129.734375 C 70.035156 129.6875 69.855469 129.632812 69.683594 129.566406 C 69.683594 129.300781 69.707031 129.03125 69.707031 128.765625 C 69.707031 128.296875 69.707031 127.828125 69.707031 127.359375 C 69.707031 127.140625 69.707031 126.914062 69.707031 126.691406 L 69.746094 125.992188 C 69.746094 125.722656 69.746094 125.457031 69.765625 125.195312 L 69.765625 124.574219 L 69.808594 123.167969 L 69.828125 122.371094 L 69.828125 121.785156 C 69.828125 121.558594 69.847656 121.328125 69.867188 121.101562 C 69.867188 120.984375 69.890625 120.871094 69.910156 120.757812 L 69.925781 120.675781 C 69.933594 120.640625 69.941406 120.605469 69.953125 120.570312 C 69.957031 120.558594 69.964844 120.542969 69.96875 120.527344 C 69.449219 120.542969 68.933594 120.566406 68.417969 120.59375 C 68.417969 120.640625 68.398438 120.6875 68.394531 120.734375 L 68.355469 121.046875 C 68.335938 121.25 68.316406 121.457031 68.308594 121.660156 C 68.289062 122.085938 68.308594 122.507812 68.285156 122.933594 C 68.261719 123.359375 68.269531 123.851562 68.25 124.308594 L 68.234375 125.183594 L 68.234375 125.742188 C 68.234375 125.964844 68.214844 126.183594 68.203125 126.40625 C 68.191406 126.625 68.175781 126.875 68.179688 127.113281 L 68.179688 128.523438 C 68.179688 128.570312 68.179688 128.617188 68.179688 128.664062 C 67.96875 128.457031 67.785156 128.230469 67.628906 127.984375 C 67.628906 127.777344 67.628906 127.574219 67.628906 127.371094 C 67.628906 127.167969 67.628906 126.925781 67.628906 126.703125 L 67.667969 126.003906 C 67.667969 125.734375 67.667969 125.46875 67.683594 125.207031 L 67.683594 124.585938 L 67.730469 123.179688 L 67.75 122.382812 L 67.75 121.796875 C 67.75 121.570312 67.769531 121.339844 67.789062 121.113281 C 67.789062 120.996094 67.8125 120.882812 67.832031 120.769531 L 67.847656 120.6875 C 67.847656 120.671875 67.847656 120.652344 67.847656 120.632812 C 67.558594 120.648438 67.292969 120.664062 67.015625 120.6875 L 66.21875 120.769531 C 66.195312 120.707031 66.171875 120.644531 66.144531 120.578125 L 66.644531 120.515625 C 66.988281 120.476562 67.335938 120.445312 67.683594 120.414062 L 67.976562 120.394531 C 68.011719 120.363281 68.054688 120.34375 68.101562 120.335938 C 68.140625 120.332031 68.175781 120.332031 68.214844 120.335938 C 68.25 120.339844 68.285156 120.355469 68.316406 120.378906 L 68.820312 120.339844 L 69.910156 120.261719 C 70.273438 120.242188 70.640625 120.230469 71.003906 120.222656 L 72.105469 120.195312 L 73.160156 120.160156 L 74.25 120.132812 L 74.464844 120.132812 C 74.503906 120.128906 74.539062 120.128906 74.578125 120.132812 L 74.601562 120.132812 L 75.332031 120.117188 C 75.679688 120.117188 76.03125 120.105469 76.378906 120.117188 L 76.464844 120.117188 C 76.660156 120.117188 76.851562 120.117188 77.042969 120.140625 C 77.082031 120.136719 77.117188 120.136719 77.152344 120.140625 L 77.207031 120.15625 L 77.445312 120.15625 L 78.554688 120.207031 L 80.769531 120.300781 C 81.210938 120.320312 81.640625 120.339844 82.097656 120.355469 L 82.113281 120.355469 C 82.152344 120.347656 82.1875 120.347656 82.222656 120.355469 L 82.273438 120.355469 L 82.917969 120.375 C 83.640625 120.375 84.367188 120.398438 85.09375 120.398438 C 85.441406 120.398438 85.789062 120.398438 86.132812 120.414062 L 87.136719 120.460938 C 87.136719 120.636719 87.152344 120.816406 87.160156 120.996094 Z M 86.851562 120.914062 " fill-opacity="1" fill-rule="nonzero"/></g><g clip-path="url(#id3)"><path fill="rgb(94.509888%, 74.508667%, 36.079407%)" d="M 106.695312 85.957031 C 102.160156 93.683594 93.257812 100.777344 89.257812 108.796875 L 62.613281 110.207031 C 59.546875 106.171875 54.988281 101.101562 51.695312 97.238281 C 45.46875 89.917969 39.515625 82.097656 37.199219 72.566406 C 35.085938 63.882812 35.394531 54.515625 38.484375 46.09375 C 41.519531 37.867188 46.890625 30.578125 54.410156 25.960938 C 61.816406 21.402344 70.75 19.125 79.4375 19.957031 C 83.207031 20.3125 86.839844 21.210938 90.339844 22.652344 C 90.445312 22.582031 90.53125 22.597656 90.601562 22.703125 L 90.667969 22.789062 C 95.234375 24.71875 99.203125 27.503906 102.574219 31.144531 C 104.144531 32.851562 105.566406 34.671875 106.839844 36.613281 C 108.109375 38.550781 109.21875 40.582031 110.160156 42.703125 C 111.101562 44.824219 111.867188 47.007812 112.453125 49.257812 C 113.039062 51.503906 113.441406 53.785156 113.65625 56.097656 C 114.5625 66.457031 111.941406 77.027344 106.695312 85.957031 Z M 106.695312 85.957031 " fill-opacity="1" fill-rule="nonzero"/></g><g clip-path="url(#id4)"><path fill="rgb(57.649231%, 74.899292%, 33.329773%)" d="M 51.695312 97.238281 C 45.46875 89.917969 39.515625 82.097656 37.199219 72.566406 C 35.085938 63.882812 35.394531 54.515625 38.484375 46.09375 C 41.519531 37.867188 46.890625 30.578125 54.410156 25.960938 C 59.796875 22.648438 65.628906 20.660156 71.910156 19.996094 C 55.300781 65.441406 66.953125 98.148438 72.449219 109.675781 L 62.613281 110.195312 C 59.546875 106.171875 54.988281 101.101562 51.695312 97.238281 Z M 51.695312 97.238281 " fill-opacity="1" fill-rule="nonzero"/></g><g clip-path="url(#id5)"><path fill="rgb(84.709167%, 39.608765%, 32.548523%)" d="M 56.441406 102.734375 C 54.765625 100.796875 53.109375 98.902344 51.6875 97.230469 C 45.464844 89.910156 39.511719 82.089844 37.191406 72.558594 C 35.078125 63.875 35.390625 54.507812 38.480469 46.085938 C 41.519531 37.867188 46.890625 30.578125 54.410156 25.960938 C 56.140625 24.902344 57.9375 23.96875 59.800781 23.164062 C 43.011719 57.332031 50.992188 88.523438 56.441406 102.734375 Z M 56.441406 102.734375 " fill-opacity="1" fill-rule="nonzero"/></g><g clip-path="url(#id6)"><path fill="rgb(45.489502%, 65.879822%, 79.60968%)" d="M 44.515625 88.039062 C 41.261719 83.3125 38.589844 78.238281 37.210938 72.558594 C 35.097656 63.875 35.40625 54.507812 38.496094 46.085938 C 40.648438 40.238281 44.003906 34.871094 48.445312 30.59375 C 37.351562 55.976562 41.042969 77.148438 44.515625 88.039062 Z M 44.515625 88.039062 " fill-opacity="1" fill-rule="nonzero"/></g><g clip-path="url(#id7)"><path fill="rgb(45.489502%, 65.879822%, 79.60968%)" d="M 79.230469 19.941406 L 79.4375 19.957031 C 83.207031 20.3125 86.839844 21.210938 90.339844 22.652344 C 90.445312 22.582031 90.53125 22.597656 90.601562 22.703125 L 90.667969 22.789062 C 95.234375 24.71875 99.203125 27.503906 102.574219 31.144531 C 104.144531 32.851562 105.566406 34.671875 106.839844 36.613281 C 108.109375 38.550781 109.21875 40.582031 110.160156 42.703125 C 111.101562 44.824219 111.867188 47.007812 112.453125 49.257812 C 113.039062 51.503906 113.441406 53.785156 113.65625 56.097656 C 114.5625 66.445312 111.941406 77.015625 106.695312 85.945312 C 102.160156 93.683594 93.257812 100.777344 89.257812 108.796875 L 79.136719 109.332031 C 84.675781 97.441406 95.820312 64.886719 79.230469 19.941406 Z M 79.230469 19.941406 " fill-opacity="1" fill-rule="nonzero"/></g><path fill="rgb(84.709167%, 39.608765%, 32.548523%)" d="M 96.28125 98.984375 C 101.472656 83.460938 106.90625 54.511719 91.355469 23.105469 C 95.640625 25.015625 99.378906 27.695312 102.574219 31.144531 C 104.144531 32.851562 105.566406 34.671875 106.839844 36.613281 C 108.109375 38.550781 109.21875 40.582031 110.160156 42.703125 C 111.101562 44.824219 111.867188 47.007812 112.453125 49.257812 C 113.039062 51.503906 113.441406 53.785156 113.65625 56.097656 C 114.5625 66.445312 111.941406 77.015625 106.695312 85.945312 C 104.085938 90.40625 100.019531 94.648438 96.28125 98.984375 Z M 96.28125 98.984375 " fill-opacity="1" fill-rule="nonzero"/><path fill="rgb(57.649231%, 74.899292%, 33.329773%)" d="M 108.125 83.355469 C 110.898438 71.90625 112.421875 53.5625 103.40625 32.101562 C 106.320312 35.464844 108.652344 39.199219 110.402344 43.296875 C 112.148438 47.398438 113.230469 51.667969 113.644531 56.109375 C 114.476562 65.46875 112.410156 75.007812 108.125 83.355469 Z M 108.125 83.355469 " fill-opacity="1" fill-rule="nonzero"/><path fill="rgb(94.509888%, 74.508667%, 36.079407%)" d="M 64.574219 112.007812 C 64.515625 112.007812 64.460938 112.042969 64.402344 112.054688 L 64.238281 112.085938 C 64.128906 112.113281 64.019531 112.15625 63.917969 112.210938 L 63.882812 112.230469 C 63.851562 112.167969 63.820312 112.105469 63.789062 112.046875 C 63.796875 112.039062 63.808594 112.027344 63.820312 112.019531 L 63.984375 111.910156 C 64.035156 111.875 64.085938 111.84375 64.140625 111.816406 C 64.191406 111.789062 64.246094 111.769531 64.300781 111.757812 C 64.359375 111.742188 64.414062 111.726562 64.46875 111.707031 C 64.523438 111.6875 64.574219 111.667969 64.628906 111.65625 C 64.683594 111.636719 64.738281 111.621094 64.792969 111.609375 C 64.851562 111.609375 64.90625 111.585938 64.960938 111.574219 C 65.011719 111.558594 65.066406 111.546875 65.121094 111.542969 C 65.171875 111.550781 65.226562 111.558594 65.277344 111.574219 L 65.457031 111.609375 L 65.75 111.65625 C 65.8125 111.835938 65.875 112.027344 65.9375 112.21875 C 65.824219 112.191406 65.714844 112.167969 65.605469 112.136719 L 65.425781 112.089844 L 65.242188 112.019531 C 65.1875 112.007812 65.132812 112 65.074219 112.003906 C 65.019531 112 64.960938 111.996094 64.90625 111.988281 C 64.792969 111.972656 64.683594 111.980469 64.574219 112.007812 Z M 65.472656 113.558594 C 65.542969 113.558594 65.609375 113.558594 65.679688 113.558594 C 65.746094 113.546875 65.808594 113.546875 65.875 113.558594 L 66.097656 113.621094 L 66.3125 113.667969 C 66.324219 113.671875 66.339844 113.671875 66.351562 113.667969 C 66.3125 113.492188 66.269531 113.316406 66.222656 113.140625 L 66.164062 113.140625 L 65.945312 113.109375 C 65.882812 113.097656 65.820312 113.089844 65.753906 113.085938 L 65.738281 113.085938 C 65.671875 113.09375 65.605469 113.101562 65.539062 113.117188 C 65.472656 113.136719 65.40625 113.152344 65.339844 113.164062 C 65.273438 113.179688 65.207031 113.195312 65.140625 113.21875 C 65.074219 113.234375 65.007812 113.253906 64.945312 113.277344 L 64.746094 113.339844 C 64.675781 113.355469 64.609375 113.378906 64.546875 113.40625 L 64.457031 113.457031 C 64.496094 113.542969 64.53125 113.621094 64.566406 113.707031 L 64.660156 113.671875 L 64.863281 113.632812 L 65.066406 113.574219 C 65.203125 113.546875 65.335938 113.542969 65.472656 113.558594 Z M 66.570312 114.789062 L 66.539062 114.789062 L 66.324219 114.761719 C 66.261719 114.75 66.195312 114.742188 66.132812 114.738281 L 66.113281 114.738281 C 66.046875 114.742188 65.984375 114.753906 65.917969 114.773438 C 65.851562 114.789062 65.785156 114.804688 65.71875 114.816406 C 65.648438 114.828125 65.582031 114.851562 65.515625 114.867188 C 65.449219 114.886719 65.386719 114.90625 65.324219 114.929688 L 65.136719 115 L 65.0625 115.019531 C 65.09375 115.121094 65.128906 115.214844 65.160156 115.3125 L 65.253906 115.292969 C 65.324219 115.292969 65.390625 115.25 65.457031 115.234375 C 65.59375 115.199219 65.726562 115.1875 65.863281 115.199219 L 66.070312 115.199219 C 66.136719 115.1875 66.203125 115.1875 66.269531 115.199219 L 66.492188 115.261719 L 66.675781 115.304688 C 66.632812 115.140625 66.605469 114.964844 66.585938 114.789062 Z M 88.34375 110.714844 C 88.226562 110.707031 88.109375 110.691406 87.996094 110.660156 C 87.878906 110.636719 87.761719 110.617188 87.644531 110.601562 L 87.464844 110.566406 C 87.410156 110.550781 87.359375 110.542969 87.304688 110.535156 L 87.289062 110.535156 C 87.234375 110.539062 87.179688 110.550781 87.128906 110.566406 C 87.070312 110.578125 87.015625 110.59375 86.960938 110.601562 C 86.90625 110.613281 86.851562 110.628906 86.796875 110.648438 L 86.636719 110.699219 C 86.582031 110.71875 86.527344 110.734375 86.472656 110.75 C 86.472656 110.851562 86.457031 110.957031 86.449219 111.066406 L 86.578125 111.042969 C 86.632812 111.042969 86.6875 111.011719 86.746094 110.996094 C 86.855469 110.964844 86.96875 110.957031 87.082031 110.972656 C 87.136719 110.972656 87.195312 110.988281 87.25 110.988281 C 87.308594 110.984375 87.363281 110.992188 87.417969 111.003906 L 87.605469 111.070312 L 87.78125 111.125 C 87.898438 111.160156 88.015625 111.183594 88.128906 111.210938 C 88.222656 111.234375 88.320312 111.25 88.417969 111.253906 C 88.453125 111.070312 88.492188 110.886719 88.53125 110.714844 Z M 87.921875 112.089844 L 87.90625 112.089844 C 87.839844 112.09375 87.773438 112.105469 87.710938 112.121094 C 87.644531 112.136719 87.578125 112.15625 87.511719 112.167969 C 87.441406 112.179688 87.375 112.199219 87.308594 112.21875 L 87.117188 112.28125 C 87.046875 112.304688 86.980469 112.324219 86.914062 112.339844 C 86.84375 112.355469 86.777344 112.378906 86.714844 112.410156 C 86.652344 112.441406 86.585938 112.476562 86.527344 112.515625 L 86.398438 112.597656 C 86.398438 112.683594 86.398438 112.765625 86.398438 112.847656 L 86.445312 112.820312 C 86.570312 112.761719 86.695312 112.710938 86.828125 112.671875 L 87.027344 112.632812 L 87.230469 112.574219 C 87.363281 112.542969 87.5 112.527344 87.636719 112.535156 L 87.84375 112.535156 C 87.910156 112.527344 87.972656 112.527344 88.039062 112.535156 L 88.183594 112.578125 C 88.207031 112.421875 88.226562 112.261719 88.25 112.109375 C 88.203125 112.105469 88.15625 112.101562 88.113281 112.089844 C 88.050781 112.085938 87.984375 112.085938 87.921875 112.089844 Z M 87.6875 113.835938 C 87.621094 113.851562 87.554688 113.875 87.492188 113.894531 C 87.429688 113.917969 87.359375 113.941406 87.289062 113.957031 C 87.222656 113.972656 87.15625 113.996094 87.09375 114.023438 C 87.027344 114.058594 86.964844 114.09375 86.902344 114.136719 L 86.710938 114.257812 C 86.648438 114.296875 86.589844 114.339844 86.535156 114.386719 L 86.503906 114.421875 C 86.503906 114.496094 86.519531 114.570312 86.523438 114.640625 L 86.640625 114.546875 C 86.699219 114.503906 86.761719 114.46875 86.824219 114.4375 C 86.949219 114.378906 87.078125 114.328125 87.207031 114.289062 L 87.410156 114.25 C 87.476562 114.234375 87.542969 114.210938 87.613281 114.191406 C 87.746094 114.15625 87.882812 114.144531 88.015625 114.15625 L 88.046875 114.15625 C 88.046875 114.078125 88.046875 114 88.046875 113.921875 C 88.046875 113.84375 88.046875 113.800781 88.0625 113.742188 L 87.871094 113.78125 C 87.816406 113.816406 87.75 113.835938 87.6875 113.855469 Z M 87.6875 113.835938 " fill-opacity="1" fill-rule="nonzero"/><g clip-path="url(#id8)"><path fill="rgb(25.099182%, 25.099182%, 63.919067%)" d="M 49.21875 31.433594 C 48.949219 32.035156 48.691406 32.644531 48.4375 33.25 C 48.183594 33.859375 47.914062 34.464844 47.691406 35.089844 L 46.925781 37.089844 C 46.800781 37.425781 46.664062 37.757812 46.542969 38.089844 L 46.195312 39.105469 C 45.902344 39.949219 45.613281 40.789062 45.34375 41.644531 L 44.84375 43.335938 C 44.648438 43.996094 44.429688 44.648438 44.261719 45.316406 C 44.097656 45.980469 43.855469 46.734375 43.683594 47.449219 C 43.511719 48.164062 43.394531 48.890625 43.261719 49.613281 C 43.125 50.335938 42.96875 51.066406 42.855469 51.792969 C 42.738281 52.519531 42.609375 53.210938 42.472656 53.921875 L 42.125 56.058594 C 42.066406 56.421875 42 56.777344 41.949219 57.140625 L 41.8125 58.222656 C 41.730469 58.949219 41.609375 59.679688 41.542969 60.398438 L 41.316406 62.621094 L 41.125 64.953125 C 41.0625 65.65625 41.09375 66.359375 41.097656 67.0625 L 41.097656 68.167969 L 41.128906 69.277344 C 41.160156 70.753906 41.273438 72.226562 41.472656 73.6875 C 41.589844 74.441406 41.695312 75.199219 41.820312 75.953125 C 41.945312 76.707031 42.054688 77.425781 42.195312 78.160156 C 42.339844 78.894531 42.484375 79.617188 42.671875 80.316406 C 42.855469 81.015625 43.035156 81.742188 43.25 82.449219 C 43.46875 83.152344 43.667969 83.871094 43.933594 84.566406 L 44.316406 85.578125 L 44.730469 86.578125 C 44.984375 87.214844 45.296875 87.832031 45.566406 88.460938 C 45.839844 89.089844 46.148438 89.757812 46.460938 90.410156 L 46.824219 91.230469 C 46.5 90.804688 46.179688 90.371094 45.863281 89.9375 C 45.65625 89.488281 45.445312 89.035156 45.234375 88.585938 L 45.234375 88.617188 L 44.65625 87.375 C 44.351562 86.722656 44.0625 86.058594 43.785156 85.386719 C 43.53125 84.722656 43.261719 84.058594 43.050781 83.375 L 42.6875 82.253906 C 42.570312 81.878906 42.464844 81.5 42.351562 81.125 L 42.039062 80.042969 L 41.765625 78.949219 C 41.675781 78.585938 41.589844 78.222656 41.515625 77.855469 L 41.320312 76.753906 L 41.125 75.632812 L 40.945312 74.507812 L 40.773438 73.433594 L 40.640625 72.351562 C 40.550781 71.609375 40.445312 70.867188 40.402344 70.121094 C 40.363281 69.371094 40.277344 68.640625 40.238281 67.898438 C 40.203125 67.15625 40.167969 66.457031 40.15625 65.738281 L 40.15625 65.5625 C 40.171875 64.882812 40.21875 64.203125 40.257812 63.523438 C 40.285156 62.761719 40.367188 62 40.421875 61.242188 L 40.511719 60.105469 C 40.539062 59.730469 40.59375 59.351562 40.636719 58.976562 C 40.726562 58.226562 40.804688 57.472656 40.925781 56.722656 C 41.167969 55.265625 41.375 53.8125 41.648438 52.375 C 41.875 50.917969 42.191406 49.464844 42.472656 48.007812 C 42.605469 47.3125 42.789062 46.628906 42.976562 45.945312 L 43.265625 44.882812 L 43.417969 44.347656 L 43.582031 43.820312 C 43.828125 43.015625 44.058594 42.214844 44.292969 41.410156 C 44.46875 40.777344 44.695312 40.164062 44.902344 39.542969 C 45.148438 38.84375 45.378906 38.144531 45.632812 37.449219 L 46.441406 35.386719 L 46.890625 34.222656 L 47.382812 33.058594 L 48.117188 31.34375 C 48.222656 31.085938 48.339844 30.828125 48.464844 30.578125 C 49.195312 29.871094 49.960938 29.191406 50.761719 28.539062 C 50.691406 28.652344 50.621094 28.761719 50.558594 28.875 C 50.394531 29.167969 50.238281 29.441406 50.085938 29.726562 C 49.792969 30.289062 49.480469 30.851562 49.21875 31.433594 Z M 49.625 67.765625 L 49.6875 66.179688 C 49.707031 65.671875 49.71875 65.160156 49.746094 64.652344 L 49.851562 63.125 L 50.003906 60.886719 L 50.082031 60.140625 L 50.394531 57.167969 L 50.804688 54.234375 C 50.875 53.746094 50.929688 53.253906 51.007812 52.777344 L 51.253906 51.320312 L 51.496094 49.820312 C 51.578125 49.324219 51.644531 48.820312 51.75 48.324219 L 52.332031 45.367188 L 52.488281 44.625 L 52.683594 43.894531 L 53.089844 42.4375 L 53.472656 41.074219 L 53.660156 40.394531 L 53.875 39.71875 L 54.589844 37.421875 L 54.859375 36.546875 L 54.988281 36.09375 L 55.144531 35.664062 L 55.777344 33.941406 L 56.285156 32.566406 C 56.453125 32.105469 56.617188 31.644531 56.816406 31.195312 L 57.945312 28.492188 L 58.46875 27.242188 L 59.046875 26.011719 C 59.433594 25.195312 59.820312 24.378906 60.207031 23.566406 C 60.320312 23.316406 60.449219 23.074219 60.578125 22.832031 C 60.078125 23.027344 59.582031 23.242188 59.09375 23.472656 C 59.082031 23.488281 59.074219 23.503906 59.070312 23.519531 L 57.976562 25.824219 C 57.464844 26.847656 57.050781 27.914062 56.601562 28.96875 L 56.023438 30.363281 C 55.832031 30.828125 55.617188 31.289062 55.441406 31.765625 L 54.410156 34.613281 C 54.257812 35.035156 54.097656 35.449219 53.953125 35.875 L 53.539062 37.15625 C 53.210938 38.25 52.851562 39.34375 52.53125 40.441406 L 51.714844 43.351562 C 51.425781 44.277344 51.257812 45.230469 51.066406 46.175781 L 50.777344 47.667969 C 50.679688 48.164062 50.566406 48.65625 50.488281 49.160156 L 49.992188 52.160156 C 49.953125 52.40625 49.90625 52.65625 49.871094 52.902344 L 49.769531 53.652344 L 49.570312 55.140625 L 49.363281 56.628906 C 49.289062 57.125 49.253906 57.625 49.199219 58.125 C 49.097656 59.152344 48.980469 60.183594 48.910156 61.210938 L 48.738281 64.3125 C 48.6875 65.351562 48.691406 66.390625 48.660156 67.433594 C 48.660156 67.898438 48.625 68.359375 48.636719 68.828125 C 48.644531 69.292969 48.636719 69.753906 48.664062 70.21875 L 48.664062 70.453125 C 48.703125 71.433594 48.757812 72.417969 48.871094 73.394531 L 49.027344 74.90625 C 49.074219 75.410156 49.117188 75.914062 49.1875 76.414062 C 49.320312 77.425781 49.460938 78.4375 49.609375 79.445312 L 50.128906 82.355469 L 50.746094 85.398438 C 50.957031 86.394531 51.199219 87.382812 51.453125 88.371094 C 51.707031 89.355469 52.03125 90.332031 52.324219 91.3125 C 52.613281 92.292969 52.988281 93.351562 53.34375 94.351562 C 53.683594 95.265625 54.011719 96.183594 54.390625 97.074219 C 54.769531 97.96875 55.152344 98.890625 55.582031 99.773438 C 55.847656 100.335938 56.113281 100.902344 56.390625 101.460938 L 56.371094 101.417969 L 57.6875 104.199219 L 58.535156 105.191406 C 58.34375 104.769531 58.148438 104.351562 57.957031 103.933594 C 57.542969 103.054688 57.136719 102.171875 56.730469 101.285156 C 56.324219 100.441406 55.945312 99.585938 55.570312 98.730469 C 55.195312 97.820312 54.796875 96.917969 54.449219 96 C 54.101562 95.078125 53.75 94.101562 53.457031 93.128906 C 53.164062 92.15625 52.851562 91.214844 52.585938 90.242188 L 52.1875 88.785156 C 52.054688 88.300781 51.949219 87.808594 51.835938 87.332031 L 51.5 85.839844 C 51.386719 85.339844 51.300781 84.839844 51.210938 84.335938 C 51.007812 83.316406 50.789062 82.300781 50.628906 81.265625 C 50.28125 79.28125 50.035156 77.28125 49.890625 75.269531 L 49.695312 72.246094 C 49.660156 71.285156 49.621094 70.324219 49.625 69.367188 Z M 110.25 61.15625 C 110.25 60.425781 110.183594 59.703125 110.148438 58.964844 L 110.089844 57.867188 C 110.0625 57.503906 110.023438 57.140625 109.992188 56.773438 C 109.921875 56.046875 109.859375 55.316406 109.773438 54.597656 C 109.691406 53.878906 109.558594 53.160156 109.4375 52.441406 C 109.3125 51.71875 109.164062 50.96875 109 50.238281 C 108.839844 49.507812 108.683594 48.78125 108.496094 48.066406 C 108.3125 47.351562 108.15625 46.609375 107.996094 45.882812 C 107.859375 45.195312 107.671875 44.523438 107.484375 43.84375 L 106.992188 42.125 C 106.734375 41.25 106.429688 40.398438 106.15625 39.53125 L 105.824219 38.488281 C 105.707031 38.144531 105.574219 37.808594 105.449219 37.464844 L 104.679688 35.425781 C 104.453125 34.789062 104.160156 34.183594 103.898438 33.558594 C 103.636719 32.9375 103.394531 32.394531 103.152344 31.796875 C 102.960938 31.582031 102.769531 31.363281 102.574219 31.152344 C 102.105469 30.644531 101.621094 30.152344 101.125 29.679688 C 101.230469 29.945312 101.332031 30.207031 101.441406 30.46875 C 101.71875 31.132812 102.023438 31.785156 102.292969 32.449219 L 103.019531 34.167969 L 103.507812 35.332031 L 103.945312 36.496094 L 104.703125 38.566406 C 104.945312 39.261719 105.160156 39.964844 105.386719 40.664062 C 105.582031 41.285156 105.808594 41.890625 105.984375 42.515625 C 106.21875 43.316406 106.449219 44.113281 106.667969 44.914062 L 106.804688 45.441406 L 106.925781 45.980469 L 107.15625 47.046875 C 107.292969 47.734375 107.492188 48.402344 107.632812 49.085938 C 107.945312 50.511719 108.265625 51.9375 108.476562 53.386719 C 108.730469 54.808594 108.851562 56.25 108.988281 57.679688 C 109.046875 58.417969 109.082031 59.160156 109.132812 59.898438 C 109.15625 60.265625 109.191406 60.636719 109.203125 61.003906 L 109.234375 62.113281 C 109.253906 62.859375 109.292969 63.597656 109.269531 64.339844 C 109.269531 65 109.238281 65.660156 109.246094 66.320312 L 109.246094 66.488281 C 109.246094 67.1875 109.246094 67.886719 109.269531 68.582031 C 109.292969 69.277344 109.269531 70.019531 109.257812 70.738281 C 109.242188 71.457031 109.214844 72.195312 109.191406 72.914062 L 109.152344 73.96875 L 109.089844 75.023438 L 109.023438 76.125 C 108.988281 76.492188 108.949219 76.859375 108.910156 77.226562 L 108.683594 79.394531 L 108.589844 80.488281 L 108.472656 81.582031 C 108.429688 81.964844 108.394531 82.34375 108.347656 82.726562 L 108.3125 82.976562 C 108.539062 82.527344 108.761719 82.070312 108.976562 81.613281 C 109.007812 81.394531 109.035156 81.179688 109.066406 80.960938 C 109.167969 80.242188 109.238281 79.507812 109.359375 78.800781 C 109.476562 78.089844 109.53125 77.34375 109.617188 76.601562 C 109.699219 75.859375 109.730469 75.097656 109.785156 74.347656 C 109.878906 72.894531 109.96875 71.4375 110.058594 69.980469 L 110.125 68.886719 L 110.152344 67.789062 L 110.199219 65.699219 C 110.222656 64.929688 110.269531 64.160156 110.28125 63.386719 Z M 101.714844 58.1875 C 101.660156 57.199219 101.574219 56.203125 101.496094 55.210938 C 101.453125 54.714844 101.417969 54.21875 101.355469 53.726562 L 101.148438 52.246094 L 100.929688 50.726562 C 100.855469 50.222656 100.789062 49.714844 100.679688 49.214844 L 100.074219 46.226562 L 99.925781 45.476562 L 99.757812 44.734375 L 99.4375 43.234375 L 99.148438 41.832031 L 98.992188 41.132812 L 98.800781 40.445312 L 98.136719 38.089844 L 97.882812 37.195312 L 97.753906 36.75 L 97.609375 36.304688 L 97.027344 34.539062 L 96.5625 33.121094 C 96.40625 32.648438 96.253906 32.175781 96.066406 31.714844 L 94.96875 28.929688 C 94.800781 28.503906 94.636719 28.070312 94.460938 27.648438 L 93.878906 26.390625 C 93.492188 25.554688 93.117188 24.710938 92.753906 23.867188 C 92.738281 23.824219 92.71875 23.78125 92.699219 23.738281 C 92.214844 23.496094 91.722656 23.261719 91.230469 23.039062 L 91.398438 23.394531 C 91.613281 23.835938 91.792969 24.296875 91.996094 24.742188 L 93.039062 27.070312 C 93.527344 28.105469 93.921875 29.175781 94.335938 30.238281 L 94.875 31.648438 C 95.046875 32.121094 95.246094 32.582031 95.390625 33.066406 L 96.335938 35.929688 C 96.472656 36.355469 96.625 36.773438 96.753906 37.195312 L 97.117188 38.476562 C 97.425781 39.574219 97.761719 40.660156 98.027344 41.761719 L 98.65625 44.691406 C 98.871094 45.625 99.042969 46.566406 99.238281 47.5 L 99.527344 48.976562 C 99.621094 49.46875 99.722656 49.957031 99.789062 50.453125 L 100.214844 53.417969 C 100.25 53.664062 100.289062 53.90625 100.3125 54.152344 L 100.378906 54.890625 L 100.503906 56.367188 L 100.621094 57.839844 C 100.65625 58.332031 100.660156 58.828125 100.679688 59.320312 C 100.707031 60.335938 100.765625 61.359375 100.777344 62.363281 L 100.777344 65.40625 C 100.777344 66.421875 100.699219 67.445312 100.664062 68.453125 C 100.636719 68.90625 100.625 69.359375 100.585938 69.8125 C 100.550781 70.261719 100.511719 70.714844 100.484375 71.164062 L 100.484375 71.394531 C 100.429688 72.351562 100.40625 73.3125 100.328125 74.265625 L 100.226562 75.742188 C 100.195312 76.238281 100.164062 76.730469 100.105469 77.21875 C 100.003906 78.210938 99.898438 79.199219 99.796875 80.191406 L 99.433594 83.066406 C 99.289062 84.066406 99.113281 85.066406 98.949219 86.0625 C 98.785156 87.0625 98.566406 88.019531 98.402344 89.003906 L 97.84375 91.96875 C 97.628906 92.996094 97.414062 94.027344 97.179688 95.050781 C 96.964844 95.988281 96.746094 96.925781 96.53125 97.859375 L 96.242188 99.023438 C 96.433594 98.800781 96.628906 98.578125 96.820312 98.355469 C 96.933594 97.898438 97.046875 97.441406 97.152344 96.984375 C 97.378906 96 97.644531 95.03125 97.867188 94.046875 C 98.085938 93.0625 98.328125 92.109375 98.527344 91.136719 L 98.839844 89.679688 C 98.945312 89.195312 99.035156 88.703125 99.128906 88.222656 L 99.417969 86.738281 C 99.519531 86.246094 99.597656 85.746094 99.6875 85.25 C 99.867188 84.230469 100.035156 83.210938 100.160156 82.1875 C 100.449219 80.214844 100.6875 78.238281 100.941406 76.257812 L 101.25 73.269531 C 101.3125 72.316406 101.363281 71.367188 101.460938 70.417969 L 101.539062 69.628906 L 101.691406 67.261719 C 101.71875 66.757812 101.753906 66.246094 101.773438 65.738281 L 101.796875 64.210938 L 101.816406 62.710938 L 101.816406 61.960938 L 101.792969 61.210938 Z M 89.78125 104.183594 L 92.324219 103.890625 L 91.902344 104.472656 L 90.320312 104.664062 L 88.71875 104.84375 L 87.667969 104.960938 C 87.253906 105.003906 86.84375 105.035156 86.429688 105.066406 C 86.015625 105.097656 85.542969 105.132812 85.105469 105.183594 L 83.789062 105.320312 L 82.464844 105.449219 C 82.269531 105.46875 82.074219 105.476562 81.886719 105.492188 L 81.628906 106.335938 C 81.578125 106.503906 81.527344 106.664062 81.472656 106.828125 L 82.339844 106.773438 C 83.214844 106.699219 84.085938 106.621094 84.949219 106.53125 C 85.367188 106.484375 85.78125 106.441406 86.199219 106.40625 L 87.507812 106.304688 C 88.003906 106.261719 88.496094 106.199219 88.988281 106.144531 L 90.148438 106.015625 L 90.917969 105.925781 L 90.546875 106.507812 L 89.09375 106.667969 L 88.039062 106.785156 C 87.628906 106.832031 87.21875 106.863281 86.800781 106.894531 C 86.386719 106.925781 85.933594 106.960938 85.480469 107.011719 L 84.164062 107.148438 L 82.839844 107.273438 C 82.320312 107.320312 81.804688 107.355469 81.285156 107.382812 L 81.136719 107.8125 C 80.96875 108.292969 80.796875 108.777344 80.605469 109.25 L 80.222656 109.269531 C 80.3125 109.050781 80.394531 108.832031 80.480469 108.613281 C 80.625 108.210938 80.769531 107.804688 80.90625 107.402344 L 80.25 107.433594 L 77.640625 107.53125 C 77.199219 107.53125 76.753906 107.546875 76.308594 107.550781 L 74.929688 107.550781 C 74.511719 107.550781 74.09375 107.570312 73.679688 107.585938 L 72.367188 107.628906 L 72.199219 107.628906 L 73.21875 109.625 L 72.851562 109.644531 C 72.765625 109.480469 72.679688 109.3125 72.597656 109.144531 C 72.328125 108.648438 72.070312 108.144531 71.816406 107.636719 C 71.125 107.652344 70.441406 107.675781 69.753906 107.722656 L 68.398438 107.792969 L 67.074219 107.847656 C 66.203125 107.882812 65.335938 107.933594 64.464844 107.984375 C 64.027344 108.007812 63.59375 108.03125 63.148438 108.066406 L 61.867188 108.1875 L 61.121094 108.257812 L 60.984375 108.085938 L 61.425781 108.035156 L 62.699219 107.898438 C 63.121094 107.859375 63.535156 107.820312 63.957031 107.789062 L 65.335938 107.679688 L 66.660156 107.574219 C 67.09375 107.546875 67.527344 107.523438 67.96875 107.503906 L 69.304688 107.429688 L 70.574219 107.34375 L 71.632812 107.273438 L 71.4375 106.898438 C 71.261719 106.535156 71.082031 106.175781 70.898438 105.820312 C 70.394531 105.835938 69.890625 105.855469 69.386719 105.890625 L 68.035156 105.960938 L 66.707031 106.015625 C 65.839844 106.046875 64.96875 106.097656 64.097656 106.152344 C 63.660156 106.175781 63.230469 106.199219 62.78125 106.234375 L 61.5 106.351562 L 60.277344 106.464844 L 59.699219 106.511719 C 59.648438 106.457031 59.601562 106.398438 59.554688 106.34375 L 60.257812 106.289062 L 61.0625 106.203125 L 62.332031 106.066406 C 62.753906 106.023438 63.171875 105.988281 63.589844 105.957031 L 64.972656 105.84375 L 66.289062 105.742188 C 66.730469 105.714844 67.160156 105.6875 67.605469 105.667969 L 68.9375 105.597656 L 70.207031 105.511719 L 70.730469 105.476562 C 70.585938 105.183594 70.441406 104.917969 70.304688 104.632812 L 70.328125 104.679688 C 70.039062 104.09375 69.730469 103.511719 69.441406 102.914062 C 69 101.980469 68.550781 101.042969 68.152344 100.082031 L 67.570312 98.664062 L 66.992188 97.238281 C 66.589844 96.183594 66.246094 95.109375 65.886719 94.035156 C 65.710938 93.527344 65.558594 93.011719 65.402344 92.492188 L 64.945312 90.9375 C 64.65625 89.902344 64.429688 88.851562 64.183594 87.804688 C 63.9375 86.757812 63.75 85.667969 63.519531 84.601562 C 63.40625 84.09375 63.320312 83.578125 63.230469 83.066406 L 62.960938 81.523438 C 62.769531 80.46875 62.644531 79.398438 62.503906 78.320312 L 62.308594 76.730469 L 62.148438 75.140625 C 62.050781 74.109375 61.925781 73.082031 61.898438 72.042969 L 61.898438 71.796875 C 61.867188 70.816406 61.851562 69.839844 61.847656 68.863281 C 61.847656 67.765625 61.882812 66.671875 61.898438 65.574219 C 61.898438 65.304688 61.898438 65.03125 61.898438 64.757812 L 61.949219 63.957031 L 62.027344 62.328125 L 62.105469 60.695312 C 62.140625 60.152344 62.195312 59.609375 62.242188 59.066406 L 62.535156 55.914062 C 62.660156 54.863281 62.78125 53.816406 62.894531 52.765625 C 62.953125 52.234375 62.996094 51.703125 63.074219 51.175781 L 63.296875 49.589844 C 63.445312 48.53125 63.585938 47.472656 63.738281 46.417969 C 63.910156 45.414062 64.082031 44.410156 64.285156 43.410156 L 64.601562 41.851562 L 64.964844 40.296875 L 65.753906 36.761719 L 66.457031 34.027344 L 67.078125 31.707031 L 67.3125 30.941406 L 68.242188 27.886719 C 68.425781 27.304688 68.578125 26.722656 68.777344 26.15625 L 69.359375 24.445312 L 70.226562 21.894531 L 70.484375 21.160156 L 70.773438 20.433594 L 70.902344 20.113281 C 71.300781 20.0625 71.699219 20.015625 72.097656 19.972656 C 71.847656 20.574219 71.601562 21.175781 71.378906 21.78125 C 70.75 23.589844 70.140625 25.402344 69.558594 27.226562 L 68.644531 30.199219 C 68.355469 31.191406 68.035156 32.179688 67.773438 33.183594 L 66.796875 36.933594 C 66.597656 37.761719 66.425781 38.59375 66.238281 39.421875 L 65.566406 42.332031 C 65.355469 43.375 65.144531 44.421875 64.964844 45.472656 C 64.878906 45.996094 64.785156 46.519531 64.707031 47.046875 L 64.503906 48.628906 C 64.363281 49.683594 64.214844 50.746094 64.074219 51.808594 C 63.9375 52.867188 63.855469 53.878906 63.734375 54.914062 C 63.675781 55.433594 63.597656 55.949219 63.550781 56.46875 L 63.410156 58.027344 L 63.265625 59.597656 C 63.21875 60.121094 63.164062 60.644531 63.140625 61.171875 L 62.96875 64.335938 C 62.929688 64.871094 62.925781 65.410156 62.90625 65.945312 L 62.859375 67.539062 C 62.859375 68.097656 62.8125 68.65625 62.808594 69.214844 L 62.808594 70.886719 C 62.808594 71.902344 62.835938 72.925781 62.921875 73.925781 C 63.003906 74.984375 63.050781 76.050781 63.140625 77.109375 C 63.226562 78.171875 63.347656 79.226562 63.464844 80.28125 C 63.582031 81.335938 63.773438 82.390625 63.949219 83.441406 C 64.121094 84.496094 64.378906 85.601562 64.578125 86.683594 C 64.777344 87.765625 65.035156 88.785156 65.265625 89.835938 C 65.492188 90.886719 65.800781 91.890625 66.078125 92.910156 C 66.351562 93.933594 66.703125 94.949219 67.015625 95.949219 C 67.328125 96.949219 67.707031 97.972656 68.101562 98.960938 C 68.5 99.953125 68.890625 100.886719 69.328125 101.828125 C 69.53125 102.277344 69.734375 102.730469 69.949219 103.171875 L 70.605469 104.503906 C 70.757812 104.828125 70.921875 105.152344 71.085938 105.472656 L 71.492188 105.445312 C 71.925781 105.425781 72.363281 105.390625 72.792969 105.359375 C 73.226562 105.328125 73.632812 105.296875 74.054688 105.277344 L 74.15625 105.277344 L 75.351562 105.246094 L 76.691406 105.203125 L 79.363281 105.089844 C 80.121094 105.054688 80.882812 105.011719 81.640625 104.960938 C 81.695312 104.769531 81.75 104.574219 81.800781 104.378906 C 82.054688 103.382812 82.34375 102.394531 82.578125 101.398438 L 82.953125 99.921875 C 83.070312 99.429688 83.191406 98.9375 83.304688 98.445312 C 83.597656 97.371094 83.804688 96.285156 84.046875 95.199219 C 84.164062 94.683594 84.261719 94.160156 84.359375 93.640625 L 84.648438 92.082031 C 84.839844 91.050781 85.035156 90.015625 85.226562 88.980469 C 85.429688 87.929688 85.582031 86.875 85.746094 85.820312 C 85.832031 85.316406 85.886719 84.808594 85.949219 84.300781 L 86.136719 82.785156 C 86.285156 81.742188 86.359375 80.695312 86.476562 79.648438 C 86.53125 79.132812 86.585938 78.613281 86.632812 78.089844 L 86.730469 76.53125 C 86.789062 75.519531 86.878906 74.511719 86.917969 73.5 L 86.933594 73.253906 C 86.984375 72.304688 87.082031 71.347656 87.148438 70.394531 C 87.191406 69.320312 87.234375 68.246094 87.28125 67.167969 C 87.28125 66.902344 87.304688 66.632812 87.308594 66.367188 L 87.308594 62.347656 C 87.308594 61.808594 87.277344 61.273438 87.261719 60.738281 C 87.234375 59.699219 87.214844 58.652344 87.167969 57.609375 C 87.121094 56.570312 87.015625 55.527344 86.925781 54.488281 C 86.878906 53.964844 86.851562 53.433594 86.78125 52.910156 L 86.585938 51.339844 C 86.445312 50.289062 86.328125 49.238281 86.164062 48.195312 C 85.996094 47.199219 85.828125 46.203125 85.6875 45.203125 L 85.464844 43.632812 L 85.175781 42.078125 C 84.953125 40.914062 84.722656 39.714844 84.472656 38.542969 L 83.871094 35.800781 L 83.511719 34.25 L 83.328125 33.472656 L 83.113281 32.707031 L 82.277344 29.632812 C 82.113281 29.050781 81.972656 28.46875 81.785156 27.886719 L 81.234375 26.164062 L 80.414062 23.605469 L 80.183594 22.859375 L 79.929688 22.125 L 79.445312 20.660156 C 79.367188 20.421875 79.289062 20.179688 79.214844 19.941406 L 79.4375 19.960938 C 79.75 19.988281 80.058594 20.03125 80.367188 20.066406 L 80.386719 20.132812 C 80.679688 21.023438 80.96875 21.914062 81.257812 22.808594 C 81.816406 24.664062 82.453125 26.492188 83.015625 28.339844 L 83.855469 31.367188 C 84.148438 32.378906 84.417969 33.386719 84.640625 34.410156 L 85.539062 38.226562 C 85.722656 39.0625 85.878906 39.90625 86.046875 40.75 C 86.234375 41.738281 86.425781 42.722656 86.585938 43.714844 C 86.734375 44.78125 86.875 45.847656 87.0625 46.917969 L 87.332031 48.503906 L 87.550781 50.09375 C 87.691406 51.160156 87.839844 52.230469 87.957031 53.296875 C 88.070312 54.363281 88.132812 55.386719 88.207031 56.433594 C 88.242188 56.957031 88.289062 57.480469 88.304688 58.003906 L 88.34375 59.578125 L 88.386719 61.160156 C 88.386719 61.6875 88.417969 62.214844 88.40625 62.742188 L 88.363281 65.90625 C 88.363281 66.445312 88.328125 66.980469 88.296875 67.515625 L 88.210938 69.125 C 88.171875 69.683594 88.152344 70.234375 88.101562 70.792969 L 87.941406 72.453125 C 87.84375 73.453125 87.8125 74.457031 87.699219 75.460938 C 87.601562 76.511719 87.507812 77.566406 87.378906 78.613281 C 87.25 79.660156 87.089844 80.703125 86.976562 81.75 C 86.863281 82.792969 86.671875 83.832031 86.539062 84.871094 C 86.40625 85.914062 86.207031 87.027344 86.03125 88.101562 C 85.855469 89.175781 85.613281 90.191406 85.414062 91.238281 C 85.214844 92.28125 84.964844 93.292969 84.753906 94.324219 C 84.542969 95.355469 84.269531 96.363281 84.03125 97.394531 C 83.792969 98.429688 83.496094 99.453125 83.234375 100.480469 C 82.96875 101.507812 82.726562 102.492188 82.433594 103.484375 C 82.296875 103.960938 82.167969 104.4375 82.035156 104.917969 L 82.035156 104.929688 C 82.878906 104.863281 83.722656 104.78125 84.566406 104.695312 C 84.984375 104.65625 85.398438 104.605469 85.816406 104.574219 L 87.125 104.472656 C 87.621094 104.429688 88.113281 104.371094 88.605469 104.3125 Z M 81.492188 105.519531 C 80.953125 105.554688 80.414062 105.582031 79.875 105.609375 L 77.265625 105.703125 C 76.824219 105.71875 76.378906 105.71875 75.933594 105.726562 L 74.554688 105.726562 C 74.136719 105.726562 73.722656 105.746094 73.304688 105.765625 L 71.992188 105.804688 L 71.28125 105.824219 L 71.308594 105.882812 L 72.003906 107.265625 C 72.394531 107.246094 72.785156 107.214844 73.164062 107.183594 C 73.542969 107.15625 74.003906 107.125 74.425781 107.105469 L 74.527344 107.105469 L 75.722656 107.074219 L 77.0625 107.035156 L 79.734375 106.921875 C 80.183594 106.898438 80.632812 106.878906 81.078125 106.851562 C 81.144531 106.65625 81.207031 106.457031 81.269531 106.269531 C 81.335938 106.007812 81.40625 105.765625 81.480469 105.519531 Z M 81.492188 105.519531 " fill-opacity="1" fill-rule="nonzero"/></g><g clip-path="url(#id9)"><path fill="rgb(100%, 100%, 100%)" d="M 8.582031 85.90625 C 9.082031 85.835938 9.640625 85.824219 10.125 85.402344 C 10.496094 85.09375 10.601562 84.746094 11.125 84.480469 C 11.503906 84.289062 11.550781 84.410156 11.875 84.230469 C 12.445312 83.90625 12.335938 83.488281 12.871094 83.09375 C 13.359375 82.734375 13.609375 82.984375 14.035156 82.625 C 14.511719 82.242188 14.308594 81.871094 14.714844 81.460938 C 15.378906 80.78125 16.652344 81.007812 17.042969 81.066406 C 17.6875 81.1875 18.183594 81.4375 18.492188 81.640625 C 19.078125 81.34375 19.527344 81.320312 19.824219 81.34375 C 20.289062 81.378906 20.585938 81.570312 20.917969 81.402344 C 21.15625 81.28125 21.285156 81.054688 21.371094 80.851562 C 21.847656 79.75 21.40625 78.777344 21.667969 77.617188 C 21.691406 77.507812 22 76.214844 23.128906 75.4375 C 23.914062 74.886719 24.757812 74.851562 25.542969 74.800781 C 26.492188 74.753906 27.265625 74.910156 27.777344 75.054688 C 27.71875 75.136719 28.621094 73.582031 29.167969 72.910156 C 30.511719 71.292969 33.339844 70.644531 35.453125 71.316406 C 36.359375 71.605469 37.132812 72.128906 38.378906 73.003906 C 39.054688 73.472656 39.519531 73.890625 39.757812 74.121094 C 40.101562 74.441406 40.304688 74.671875 40.304688 74.671875 C 41.742188 74.394531 41.8125 74.394531 41.8125 74.394531 C 42.644531 74.324219 43.835938 74.597656 44.558594 75.460938 C 45.367188 76.394531 45.449219 78.277344 45.058594 78.417969 C 44.929688 78.46875 44.796875 77.929688 44.429688 77.917969 C 44.191406 77.90625 43.941406 78.109375 43.871094 78.335938 C 43.714844 78.839844 44.40625 79.425781 44.546875 79.546875 C 45.152344 80.0625 45.535156 79.953125 46.332031 80.300781 C 47.863281 80.960938 48.519531 82.253906 49.027344 81.988281 C 49.0625 81.976562 49.136719 81.882812 49.300781 81.691406 C 49.707031 81.222656 49.800781 81.007812 49.933594 80.875 C 50.335938 80.445312 51.382812 80.457031 52.023438 80.898438 C 52.773438 81.402344 52.417969 82.097656 53.285156 82.875 C 53.808594 83.34375 53.996094 83.152344 54.746094 83.773438 C 55.386719 84.3125 55.863281 84.734375 55.863281 84.734375 C 56.042969 84.542969 56.363281 84.253906 56.824219 84.097656 C 57.835938 83.761719 58.785156 84.324219 59.035156 84.480469 C 59.726562 84.890625 59.667969 85.199219 60.414062 85.65625 C 60.890625 85.953125 61.257812 86.039062 62.019531 86.242188 C 62.660156 86.410156 63.601562 86.648438 64.957031 87.007812 C 64.21875 87.046875 63.113281 87.09375 61.746094 87.152344 C 59.273438 87.25 59.011719 87.226562 57.539062 87.308594 C 55.019531 87.441406 53.734375 87.609375 53 87.714844 C 51.621094 87.917969 51.796875 87.992188 51.25 88.015625 C 49.160156 88.085938 48.113281 87.128906 47.128906 87.714844 C 46.6875 87.980469 46.878906 88.242188 46.320312 88.84375 C 45.523438 89.691406 44.453125 89.824219 43.539062 89.992188 C 39.589844 90.675781 39.390625 91.644531 37.117188 91.453125 C 36.132812 91.371094 35.929688 91.164062 35.242188 90.925781 C 35.242188 90.925781 34.871094 90.792969 34.265625 90.664062 C 33.089844 90.410156 30.867188 91.09375 29.15625 91.25 C 28.632812 91.296875 26.8125 91.417969 24.816406 90.613281 C 23.496094 90.085938 22.558594 89.34375 21.988281 88.804688 C 21.988281 88.804688 20.941406 88.816406 20.15625 88.554688 C 18.96875 88.160156 19.039062 87.65625 17.910156 87.210938 C 17.496094 87.058594 16.246094 86.519531 14.917969 86.828125 C 14.371094 86.960938 14.261719 87.117188 13.539062 87.25 C 12.992188 87.34375 12.574219 87.332031 12.457031 87.332031 C 11.753906 87.308594 11.265625 87.140625 10.945312 87.046875 C 10.269531 86.839844 9.566406 86.851562 8.164062 86.816406 C 6.90625 86.792969 5.882812 86.902344 5.207031 87.007812 C 6.726562 86.265625 7.832031 86.003906 8.582031 85.90625 Z M 8.582031 85.90625 " fill-opacity="1" fill-rule="nonzero"/></g><g clip-path="url(#id10)"><path fill="rgb(100%, 100%, 100%)" d="M 88.429688 48.164062 C 88.929688 48.09375 89.488281 48.082031 89.976562 47.660156 C 90.34375 47.351562 90.449219 47.003906 90.972656 46.738281 C 91.355469 46.546875 91.402344 46.667969 91.722656 46.488281 C 92.292969 46.164062 92.1875 45.746094 92.722656 45.351562 C 93.207031 44.992188 93.457031 45.242188 93.886719 44.882812 C 94.363281 44.5 94.160156 44.128906 94.5625 43.71875 C 95.230469 43.039062 96.5 43.265625 96.894531 43.324219 C 97.535156 43.445312 98.035156 43.695312 98.34375 43.898438 C 98.925781 43.601562 99.378906 43.578125 99.675781 43.601562 C 100.136719 43.636719 100.433594 43.828125 100.769531 43.660156 C 101.003906 43.539062 101.136719 43.3125 101.21875 43.109375 C 101.695312 42.007812 101.253906 41.039062 101.515625 39.875 C 101.539062 39.765625 101.847656 38.472656 102.980469 37.695312 C 103.761719 37.144531 104.605469 37.109375 105.390625 37.058594 C 106.34375 37.011719 107.113281 37.167969 107.625 37.3125 C 107.566406 37.394531 108.46875 35.839844 109.015625 35.167969 C 110.359375 33.550781 113.1875 32.902344 115.304688 33.574219 C 116.207031 33.863281 116.980469 34.390625 118.226562 35.261719 C 118.90625 35.730469 119.371094 36.148438 119.605469 36.378906 C 119.953125 36.699219 120.152344 36.929688 120.152344 36.929688 C 121.59375 36.652344 121.664062 36.652344 121.664062 36.652344 C 122.496094 36.582031 123.683594 36.855469 124.410156 37.71875 C 125.21875 38.652344 125.300781 40.535156 124.90625 40.679688 C 124.777344 40.726562 124.648438 40.1875 124.277344 40.175781 C 124.039062 40.164062 123.789062 40.367188 123.71875 40.59375 C 123.566406 41.097656 124.253906 41.683594 124.398438 41.804688 C 125.003906 42.320312 125.382812 42.210938 126.179688 42.558594 C 127.714844 43.21875 128.367188 44.511719 128.878906 44.246094 C 128.914062 44.234375 128.984375 44.140625 129.152344 43.949219 C 129.554688 43.480469 129.652344 43.265625 129.78125 43.132812 C 130.183594 42.703125 131.230469 42.714844 131.875 43.15625 C 132.621094 43.660156 132.265625 44.355469 133.132812 45.132812 C 133.65625 45.601562 133.847656 45.410156 134.59375 46.03125 C 135.238281 46.570312 135.710938 46.992188 135.710938 46.992188 C 135.890625 46.800781 136.210938 46.511719 136.675781 46.355469 C 137.683594 46.019531 138.636719 46.582031 138.886719 46.738281 C 139.574219 47.148438 139.515625 47.457031 140.265625 47.914062 C 140.738281 48.214844 141.109375 48.296875 141.871094 48.5 C 142.511719 48.667969 143.449219 48.90625 144.804688 49.265625 C 144.066406 49.304688 142.960938 49.351562 141.597656 49.410156 C 139.125 49.507812 138.863281 49.484375 137.386719 49.566406 C 134.867188 49.699219 133.585938 49.867188 132.847656 49.972656 C 131.46875 50.175781 131.648438 50.25 131.101562 50.273438 C 129.007812 50.34375 127.960938 49.386719 126.976562 49.972656 C 126.535156 50.238281 126.726562 50.5 126.167969 51.101562 C 125.371094 51.949219 124.300781 52.082031 123.386719 52.25 C 119.441406 52.933594 119.238281 53.902344 116.96875 53.710938 C 115.980469 53.628906 115.78125 53.425781 115.089844 53.183594 C 115.089844 53.183594 114.722656 53.050781 114.117188 52.921875 C 112.9375 52.667969 110.714844 53.351562 109.003906 53.507812 C 108.480469 53.554688 106.664062 53.675781 104.667969 52.871094 C 103.347656 52.347656 102.40625 51.601562 101.835938 51.0625 C 101.835938 51.0625 100.792969 51.074219 100.007812 50.8125 C 98.820312 50.417969 98.890625 49.914062 97.761719 49.472656 C 97.34375 49.316406 96.097656 48.777344 94.765625 49.085938 C 94.21875 49.21875 94.113281 49.375 93.386719 49.507812 C 92.839844 49.601562 92.425781 49.589844 92.304688 49.589844 C 91.605469 49.566406 91.117188 49.398438 90.796875 49.304688 C 90.117188 49.097656 89.417969 49.113281 88.015625 49.074219 C 86.753906 49.050781 85.730469 49.160156 85.054688 49.265625 C 86.574219 48.523438 87.679688 48.261719 88.429688 48.164062 Z M 88.429688 48.164062 " fill-opacity="1" fill-rule="nonzero"/></g><g clip-path="url(#id11)"><path fill="rgb(100%, 100%, 100%)" d="M 82.46875 132.59375 C 82.667969 132.566406 82.894531 132.5625 83.085938 132.394531 C 83.234375 132.273438 83.277344 132.136719 83.488281 132.035156 C 83.636719 131.957031 83.65625 132.003906 83.785156 131.933594 C 84.015625 131.808594 83.972656 131.644531 84.183594 131.488281 C 84.378906 131.347656 84.480469 131.445312 84.648438 131.304688 C 84.839844 131.152344 84.757812 131.007812 84.921875 130.847656 C 85.1875 130.578125 85.695312 130.667969 85.851562 130.691406 C 86.109375 130.738281 86.308594 130.839844 86.429688 130.917969 C 86.664062 130.800781 86.84375 130.792969 86.964844 130.800781 C 87.148438 130.816406 87.265625 130.890625 87.398438 130.824219 C 87.496094 130.777344 87.546875 130.6875 87.582031 130.609375 C 87.769531 130.175781 87.59375 129.792969 87.699219 129.335938 C 87.707031 129.292969 87.832031 128.785156 88.285156 128.480469 C 88.597656 128.265625 88.933594 128.25 89.246094 128.230469 C 89.628906 128.210938 89.9375 128.273438 90.140625 128.332031 C 90.117188 128.363281 90.476562 127.75 90.695312 127.488281 C 91.234375 126.851562 92.363281 126.597656 93.207031 126.863281 C 93.570312 126.976562 93.878906 127.183594 94.375 127.523438 C 94.648438 127.707031 94.832031 127.875 94.925781 127.964844 C 95.066406 128.089844 95.144531 128.179688 95.144531 128.179688 C 95.722656 128.070312 95.75 128.070312 95.75 128.070312 C 96.082031 128.042969 96.558594 128.152344 96.847656 128.488281 C 97.167969 128.855469 97.203125 129.597656 97.046875 129.652344 C 96.992188 129.671875 96.941406 129.460938 96.792969 129.453125 C 96.699219 129.449219 96.597656 129.53125 96.570312 129.621094 C 96.507812 129.816406 96.785156 130.046875 96.839844 130.09375 C 97.082031 130.296875 97.234375 130.253906 97.554688 130.390625 C 98.167969 130.648438 98.429688 131.160156 98.632812 131.054688 C 98.644531 131.050781 98.675781 131.011719 98.742188 130.9375 C 98.902344 130.753906 98.941406 130.667969 98.992188 130.617188 C 99.15625 130.449219 99.574219 130.453125 99.828125 130.625 C 100.128906 130.824219 99.984375 131.097656 100.332031 131.402344 C 100.542969 131.585938 100.617188 131.511719 100.917969 131.757812 C 101.171875 131.96875 101.363281 132.132812 101.363281 132.132812 C 101.433594 132.058594 101.5625 131.945312 101.746094 131.882812 C 102.152344 131.75 102.53125 131.972656 102.632812 132.035156 C 102.90625 132.195312 102.882812 132.316406 103.183594 132.496094 C 103.371094 132.613281 103.519531 132.644531 103.824219 132.726562 C 104.078125 132.792969 104.453125 132.886719 104.996094 133.027344 C 104.703125 133.042969 104.261719 133.058594 103.714844 133.082031 C 102.726562 133.121094 102.621094 133.113281 102.03125 133.144531 C 101.027344 133.195312 100.511719 133.261719 100.21875 133.304688 C 99.667969 133.382812 99.738281 133.414062 99.519531 133.421875 C 98.683594 133.449219 98.265625 133.074219 97.871094 133.304688 C 97.695312 133.40625 97.773438 133.511719 97.550781 133.746094 C 97.230469 134.082031 96.804688 134.132812 96.4375 134.199219 C 94.859375 134.46875 94.78125 134.847656 93.875 134.773438 C 93.480469 134.738281 93.398438 134.660156 93.121094 134.566406 C 93.121094 134.566406 92.976562 134.515625 92.734375 134.460938 C 92.261719 134.363281 91.375 134.632812 90.691406 134.691406 C 90.480469 134.710938 89.753906 134.757812 88.957031 134.445312 C 88.429688 134.238281 88.054688 133.945312 87.828125 133.734375 C 87.828125 133.734375 87.410156 133.738281 87.097656 133.632812 C 86.621094 133.480469 86.648438 133.28125 86.199219 133.105469 C 86.03125 133.046875 85.535156 132.832031 85 132.957031 C 84.78125 133.007812 84.742188 133.070312 84.449219 133.121094 C 84.230469 133.160156 84.066406 133.152344 84.019531 133.152344 C 83.738281 133.144531 83.542969 133.078125 83.414062 133.042969 C 83.144531 132.960938 82.863281 132.964844 82.304688 132.953125 C 81.800781 132.941406 81.390625 132.984375 81.121094 133.027344 C 81.730469 132.734375 82.171875 132.632812 82.46875 132.59375 Z M 82.46875 132.59375 " fill-opacity="1" fill-rule="nonzero"/></g><g clip-path="url(#id12)"><path fill="rgb(100%, 100%, 100%)" d="M 32.632812 30.496094 C 32.832031 30.46875 33.054688 30.464844 33.25 30.300781 C 33.394531 30.175781 33.4375 30.039062 33.648438 29.9375 C 33.800781 29.863281 33.820312 29.910156 33.945312 29.839844 C 34.175781 29.710938 34.132812 29.546875 34.347656 29.390625 C 34.539062 29.25 34.640625 29.347656 34.8125 29.207031 C 35 29.058594 34.921875 28.910156 35.082031 28.75 C 35.347656 28.484375 35.855469 28.574219 36.011719 28.597656 C 36.269531 28.644531 36.46875 28.742188 36.59375 28.820312 C 36.824219 28.703125 37.003906 28.695312 37.125 28.703125 C 37.308594 28.71875 37.429688 28.792969 37.5625 28.726562 C 37.65625 28.679688 37.707031 28.589844 37.742188 28.511719 C 37.933594 28.078125 37.757812 27.695312 37.859375 27.242188 C 37.871094 27.199219 37.992188 26.691406 38.445312 26.382812 C 38.757812 26.167969 39.09375 26.152344 39.410156 26.132812 C 39.789062 26.117188 40.097656 26.175781 40.300781 26.234375 C 40.277344 26.265625 40.640625 25.65625 40.855469 25.390625 C 41.394531 24.753906 42.523438 24.5 43.371094 24.765625 C 43.730469 24.878906 44.039062 25.085938 44.539062 25.429688 C 44.808594 25.613281 44.992188 25.777344 45.089844 25.867188 C 45.226562 25.992188 45.308594 26.082031 45.308594 26.082031 C 45.882812 25.972656 45.910156 25.972656 45.910156 25.972656 C 46.242188 25.945312 46.71875 26.054688 47.007812 26.394531 C 47.332031 26.761719 47.363281 27.5 47.207031 27.554688 C 47.15625 27.574219 47.101562 27.363281 46.957031 27.359375 C 46.859375 27.351562 46.761719 27.433594 46.730469 27.523438 C 46.671875 27.71875 46.945312 27.949219 47.003906 28 C 47.246094 28.199219 47.398438 28.15625 47.714844 28.292969 C 48.328125 28.554688 48.589844 29.0625 48.792969 28.957031 C 48.808594 28.953125 48.835938 28.914062 48.902344 28.839844 C 49.0625 28.65625 49.101562 28.574219 49.15625 28.519531 C 49.316406 28.351562 49.734375 28.355469 49.992188 28.53125 C 50.289062 28.726562 50.148438 29 50.492188 29.304688 C 50.703125 29.488281 50.777344 29.414062 51.078125 29.660156 C 51.335938 29.871094 51.523438 30.035156 51.523438 30.035156 C 51.59375 29.960938 51.722656 29.847656 51.910156 29.785156 C 52.3125 29.65625 52.691406 29.875 52.792969 29.9375 C 53.066406 30.097656 53.042969 30.21875 53.34375 30.398438 C 53.535156 30.515625 53.679688 30.550781 53.984375 30.628906 C 54.242188 30.695312 54.617188 30.789062 55.15625 30.929688 C 54.863281 30.945312 54.421875 30.964844 53.875 30.988281 C 52.886719 31.023438 52.78125 31.015625 52.195312 31.046875 C 51.1875 31.097656 50.675781 31.164062 50.378906 31.207031 C 49.828125 31.289062 49.898438 31.316406 49.679688 31.324219 C 48.847656 31.355469 48.429688 30.976562 48.035156 31.207031 C 47.859375 31.3125 47.933594 31.414062 47.710938 31.648438 C 47.390625 31.984375 46.964844 32.035156 46.597656 32.101562 C 45.023438 32.371094 44.941406 32.75 44.035156 32.675781 C 43.640625 32.644531 43.558594 32.5625 43.285156 32.46875 C 43.285156 32.46875 43.136719 32.417969 42.894531 32.367188 C 42.425781 32.265625 41.535156 32.535156 40.851562 32.597656 C 40.644531 32.613281 39.917969 32.660156 39.117188 32.347656 C 38.59375 32.140625 38.214844 31.847656 37.988281 31.636719 C 37.988281 31.636719 37.570312 31.640625 37.257812 31.539062 C 36.78125 31.382812 36.8125 31.183594 36.359375 31.011719 C 36.195312 30.949219 35.695312 30.738281 35.164062 30.859375 C 34.945312 30.910156 34.902344 30.972656 34.613281 31.023438 C 34.394531 31.0625 34.226562 31.058594 34.179688 31.058594 C 33.898438 31.046875 33.703125 30.980469 33.578125 30.945312 C 33.304688 30.863281 33.027344 30.867188 32.464844 30.855469 C 31.960938 30.84375 31.554688 30.886719 31.28125 30.929688 C 31.890625 30.636719 32.332031 30.535156 32.632812 30.496094 Z M 32.632812 30.496094 " fill-opacity="1" fill-rule="nonzero"/></g></svg>