<svg xmlns="http://www.w3.org/2000/svg" xmlns:xlink="http://www.w3.org/1999/xlink" width="200" zoomAndPan="magnify" viewBox="0 0 150 149.999998" height="200" preserveAspectRatio="xMidYMid meet" version="1.0"><defs><clipPath id="id1"><path d="M 79.265625 43 L 139.265625 43 L 139.265625 63.660156 L 79.265625 63.660156 Z M 79.265625 43 " clip-rule="nonzero"/></clipPath><clipPath id="id2"><path d="M 28.902344 101.542969 L 121.148438 101.542969 L 121.148438 149.742188 L 28.902344 149.742188 Z M 28.902344 101.542969 " clip-rule="nonzero"/></clipPath><clipPath id="id3"><path d="M 53 141 L 61 141 L 61 149.832031 L 53 149.832031 Z M 53 141 " clip-rule="nonzero"/></clipPath><clipPath id="id4"><path d="M 109.914062 146 L 119.71875 146 L 119.71875 149.742188 L 109.914062 149.742188 Z M 109.914062 146 " clip-rule="nonzero"/></clipPath><clipPath id="id5"><path d="M 113 148.3125 L 117.367188 148.3125 L 117.367188 149.742188 L 113 149.742188 Z M 113 148.3125 " clip-rule="nonzero"/></clipPath><clipPath id="id6"><path d="M 98.535156 117.589844 L 101.871094 117.589844 L 101.871094 149.742188 L 98.535156 149.742188 Z M 98.535156 117.589844 " clip-rule="nonzero"/></clipPath><clipPath id="id7"><path d="M 50 132 L 51 132 L 51 149.832031 L 50 149.832031 Z M 50 132 " clip-rule="nonzero"/></clipPath><clipPath id="id8"><path d="M 46 53.082031 L 102 53.082031 L 102 125 L 46 125 Z M 46 53.082031 " clip-rule="nonzero"/></clipPath><clipPath id="id9"><path d="M 75 147 L 83 147 L 83 149.832031 L 75 149.832031 Z M 75 147 " clip-rule="nonzero"/></clipPath><clipPath id="id10"><path d="M 4.265625 68.414062 L 64.265625 68.414062 L 64.265625 89.414062 L 4.265625 89.414062 Z M 4.265625 68.414062 " clip-rule="nonzero"/></clipPath></defs><rect x="-15" width="180" fill="rgb(100%, 100%, 100%)" y="-15" height="179.999997" fill-opacity="1"/><rect x="-15" width="180" fill="rgb(36.079407%, 88.238525%, 90.19928%)" y="-15" height="179.999997" fill-opacity="1"/><rect x="-15" width="180" fill="rgb(100%, 100%, 100%)" y="-15" height="179.999997" fill-opacity="1"/><rect x="-15" width="180" fill="rgb(36.079407%, 88.238525%, 90.19928%)" y="-15" height="179.999997" fill-opacity="1"/><g clip-path="url(#id1)"><path fill="rgb(100%, 88.62915%, 57.249451%)" d="M 82.765625 57.925781 C 83.265625 57.851562 83.824219 57.839844 84.308594 57.421875 C 84.679688 57.109375 84.785156 56.761719 85.308594 56.5 C 85.6875 56.308594 85.734375 56.425781 86.058594 56.246094 C 86.628906 55.921875 86.519531 55.503906 87.054688 55.109375 C 87.542969 54.75 87.792969 55 88.21875 54.640625 C 88.695312 54.257812 88.492188 53.886719 88.898438 53.480469 C 89.5625 52.796875 90.835938 53.023438 91.226562 53.085938 C 91.867188 53.203125 92.367188 53.457031 92.675781 53.660156 C 93.261719 53.359375 93.710938 53.335938 94.007812 53.359375 C 94.472656 53.394531 94.769531 53.585938 95.101562 53.417969 C 95.339844 53.300781 95.46875 53.070312 95.554688 52.867188 C 96.027344 51.765625 95.589844 50.796875 95.851562 49.632812 C 95.875 49.527344 96.183594 48.234375 97.3125 47.453125 C 98.097656 46.902344 98.941406 46.867188 99.726562 46.820312 C 100.675781 46.769531 101.449219 46.925781 101.960938 47.070312 C 101.902344 47.15625 102.804688 45.597656 103.351562 44.925781 C 104.695312 43.308594 107.523438 42.660156 109.636719 43.332031 C 110.542969 43.621094 111.3125 44.148438 112.5625 45.023438 C 113.238281 45.488281 113.703125 45.910156 113.941406 46.136719 C 114.285156 46.460938 114.488281 46.6875 114.488281 46.6875 C 115.925781 46.410156 115.996094 46.410156 115.996094 46.410156 C 116.828125 46.339844 118.019531 46.617188 118.742188 47.476562 C 119.550781 48.414062 119.632812 50.292969 119.242188 50.4375 C 119.113281 50.484375 118.980469 49.945312 118.613281 49.933594 C 118.375 49.921875 118.125 50.125 118.054688 50.351562 C 117.898438 50.855469 118.589844 51.441406 118.730469 51.5625 C 119.335938 52.078125 119.71875 51.96875 120.515625 52.316406 C 122.046875 52.976562 122.699219 54.269531 123.210938 54.007812 C 123.246094 53.996094 123.320312 53.898438 123.484375 53.707031 C 123.890625 53.238281 123.984375 53.023438 124.117188 52.890625 C 124.519531 52.460938 125.566406 52.472656 126.207031 52.917969 C 126.957031 53.417969 126.601562 54.113281 127.46875 54.894531 C 127.992188 55.359375 128.179688 55.167969 128.929688 55.792969 C 129.570312 56.332031 130.046875 56.75 130.046875 56.75 C 130.226562 56.558594 130.546875 56.269531 131.007812 56.113281 C 132.019531 55.78125 132.96875 56.34375 133.21875 56.5 C 133.910156 56.90625 133.851562 57.21875 134.597656 57.671875 C 135.074219 57.972656 135.441406 58.054688 136.203125 58.257812 C 136.84375 58.425781 137.785156 58.667969 139.140625 59.027344 C 138.402344 59.0625 137.296875 59.109375 135.929688 59.167969 C 133.457031 59.265625 133.195312 59.242188 131.722656 59.324219 C 129.203125 59.457031 127.917969 59.625 127.183594 59.734375 C 125.804688 59.9375 125.980469 60.007812 125.433594 60.03125 C 123.34375 60.105469 122.296875 59.144531 121.308594 59.734375 C 120.871094 59.996094 121.0625 60.261719 120.503906 60.859375 C 119.707031 61.710938 118.636719 61.839844 117.722656 62.007812 C 113.773438 62.691406 113.574219 63.660156 111.300781 63.46875 C 110.316406 63.386719 110.113281 63.183594 109.425781 62.941406 C 109.425781 62.941406 109.054688 62.8125 108.449219 62.679688 C 107.273438 62.429688 105.050781 63.109375 103.339844 63.265625 C 102.816406 63.316406 100.996094 63.433594 99 62.632812 C 97.679688 62.105469 96.742188 61.363281 96.171875 60.824219 C 96.171875 60.824219 95.125 60.835938 94.339844 60.570312 C 93.152344 60.175781 93.222656 59.671875 92.09375 59.230469 C 91.679688 59.074219 90.429688 58.535156 89.101562 58.847656 C 88.554688 58.976562 88.445312 59.132812 87.722656 59.265625 C 87.175781 59.363281 86.757812 59.347656 86.640625 59.347656 C 85.9375 59.324219 85.449219 59.15625 85.128906 59.0625 C 84.453125 58.859375 83.75 58.871094 82.347656 58.835938 C 81.089844 58.808594 80.066406 58.917969 79.390625 59.027344 C 80.910156 58.285156 82.015625 58.019531 82.765625 57.925781 Z M 82.765625 57.925781 " fill-opacity="1" fill-rule="nonzero"/></g><g clip-path="url(#id2)"><path fill="rgb(39.219666%, 31.369019%, 67.449951%)" d="M 121.105469 149.742188 C 121.160156 149.613281 121.15625 149.425781 121.109375 149.152344 C 120.894531 147.902344 120.691406 146.648438 120.4375 145.40625 C 118.84375 137.601562 116.121094 130.222656 111.972656 123.394531 C 108.234375 117.238281 103.582031 111.910156 97.699219 107.699219 C 93.96875 105.03125 89.925781 102.980469 85.519531 101.664062 C 85.246094 101.582031 85.140625 101.648438 84.992188 101.878906 C 84.535156 102.574219 84.109375 103.304688 83.542969 103.902344 C 81.175781 106.410156 78.179688 107.609375 74.78125 107.652344 C 70.246094 107.714844 66.570312 106.140625 64.542969 101.707031 C 64.011719 101.898438 63.464844 102.085938 62.933594 102.296875 C 61.039062 103.050781 59.070312 103.664062 57.269531 104.59375 C 50.25 108.234375 44.730469 113.566406 40.234375 119.992188 C 36 126.050781 33.035156 132.699219 31.042969 139.796875 C 30.128906 143.066406 29.484375 146.398438 28.902344 149.742188 L 121.105469 149.742188 " fill-opacity="1" fill-rule="nonzero"/></g><path fill="rgb(51.759338%, 43.528748%, 74.508667%)" d="M 65.109375 132.34375 C 65.039062 135.820312 68.574219 136.742188 70.84375 135.773438 C 73.09375 134.808594 73.546875 132.613281 73.140625 131.222656 C 72.730469 129.808594 71.148438 128.898438 69.785156 129.277344 C 69.019531 129.488281 68.527344 130 68.242188 130.722656 C 67.824219 131.777344 69.035156 132.746094 69.851562 132.695312 C 70.28125 132.667969 70.515625 132.378906 70.597656 131.953125 C 70.617188 131.835938 70.75 131.742188 70.835938 131.636719 C 70.878906 131.753906 70.960938 131.875 70.957031 131.992188 C 70.933594 132.789062 70.148438 133.292969 69.347656 133.039062 C 68.425781 132.746094 67.789062 132.011719 67.753906 131.207031 C 67.722656 130.398438 68.441406 129.394531 69.320312 129.015625 C 71.003906 128.289062 73.1875 129.433594 73.570312 131.277344 C 74.007812 133.367188 73.042969 135.636719 70.265625 136.386719 C 69.296875 136.648438 68.335938 136.601562 67.390625 136.277344 C 65.542969 135.644531 64.628906 134.175781 64.765625 131.949219 C 64.839844 130.695312 65.207031 129.511719 65.917969 128.457031 C 67.191406 126.570312 69.589844 125.671875 71.828125 126.199219 C 74.199219 126.757812 75.9375 128.03125 76.65625 130.4375 C 77.269531 132.480469 76.484375 134.753906 74.800781 135.847656 C 74.515625 136.03125 74.15625 136.101562 73.824219 136.195312 C 73.765625 136.210938 73.664062 136.078125 73.582031 136.015625 C 73.65625 135.945312 73.722656 135.824219 73.800781 135.816406 C 74.578125 135.753906 75.09375 135.257812 75.519531 134.699219 C 77.160156 132.542969 76.597656 129.25 74.265625 127.683594 C 72.484375 126.488281 70.550781 126.015625 68.449219 126.890625 C 66.699219 127.621094 65.804688 129.015625 65.363281 130.765625 C 65.234375 131.28125 65.191406 131.816406 65.109375 132.34375 " fill-opacity="1" fill-rule="nonzero"/><path fill="rgb(51.759338%, 43.528748%, 74.508667%)" d="M 99.222656 121.222656 C 99.226562 118.554688 97.421875 116.335938 94.847656 115.859375 C 94.390625 115.777344 93.921875 115.753906 93.507812 116.0625 C 93.453125 116.101562 93.339844 116.0625 93.253906 116.058594 C 93.257812 115.972656 93.238281 115.824219 93.277344 115.804688 C 93.535156 115.675781 93.796875 115.511719 94.074219 115.480469 C 95.109375 115.367188 96.050781 115.695312 96.921875 116.234375 C 99.375 117.742188 100.359375 121.164062 99.042969 123.699219 C 98.292969 125.144531 97.039062 125.957031 95.441406 126.132812 C 92.558594 126.453125 90.054688 124.566406 89.503906 121.726562 C 89.253906 120.433594 90.257812 118.554688 91.535156 117.871094 C 94.34375 116.371094 97.308594 118.414062 97.816406 120.398438 C 98.195312 121.886719 97.550781 123.441406 96.253906 123.992188 C 94.941406 124.546875 93.007812 123.855469 92.351562 122.597656 C 91.871094 121.675781 92.5 120.472656 93.605469 120.21875 C 94.164062 120.085938 94.675781 120.167969 95.078125 120.609375 C 95.394531 120.960938 95.386719 121.40625 95.058594 121.703125 C 94.992188 121.765625 94.867188 121.765625 94.769531 121.792969 C 94.753906 121.703125 94.699219 121.589844 94.734375 121.527344 C 94.859375 121.3125 95.027344 121.058594 94.765625 120.894531 C 94.5 120.722656 94.148438 120.558594 93.855469 120.589844 C 93.296875 120.644531 92.863281 120.984375 92.65625 121.539062 C 92.460938 122.070312 92.691406 122.492188 93.050781 122.875 C 94.023438 123.90625 95.734375 124.097656 96.6875 123.234375 C 97.511719 122.492188 97.703125 121.519531 97.417969 120.484375 C 96.824219 118.34375 93.496094 116.539062 91.023438 118.746094 C 90.007812 119.652344 89.394531 121.460938 90.386719 123.074219 C 91.363281 124.65625 92.667969 125.75 94.597656 125.792969 C 97.316406 125.855469 99.21875 123.9375 99.222656 121.222656 " fill-opacity="1" fill-rule="nonzero"/><path fill="rgb(51.759338%, 43.528748%, 74.508667%)" d="M 55.113281 123.726562 C 54.933594 125.828125 54.203125 127.648438 52.261719 128.703125 C 50.710938 129.542969 49.082031 129.492188 47.503906 128.695312 C 46.449219 128.164062 45.957031 127.214844 45.84375 126.101562 C 45.683594 124.511719 46.242188 123.144531 47.5 122.148438 C 48.867188 121.070312 51.277344 121.632812 52.121094 123.160156 C 52.722656 124.25 52.195312 126.046875 51.097656 126.652344 C 50.296875 127.09375 49.097656 126.5625 48.886719 125.667969 C 48.777344 125.214844 49.308594 124.550781 49.796875 124.539062 C 49.867188 124.539062 49.972656 124.589844 49.996094 124.640625 C 50.019531 124.699219 49.984375 124.8125 49.933594 124.859375 C 49.855469 124.9375 49.746094 124.984375 49.652344 125.042969 C 49.195312 125.324219 49.164062 125.59375 49.535156 125.988281 C 50.066406 126.554688 50.753906 126.574219 51.265625 125.996094 C 52.304688 124.824219 52.324219 123.242188 50.726562 122.386719 C 49.273438 121.613281 47.828125 121.960938 46.933594 123.34375 C 46.339844 124.253906 46.070312 125.25 46.285156 126.320312 C 46.570312 127.769531 47.453125 128.667969 49.40625 128.84375 C 52.828125 129.152344 54.308594 126.570312 54.640625 124.4375 C 55.050781 121.796875 53.277344 119.53125 50.636719 119.1875 C 49.386719 119.027344 48.265625 119.332031 47.230469 120.023438 C 47.109375 120.105469 47.023438 120.246094 46.910156 120.339844 C 46.835938 120.402344 46.734375 120.429688 46.644531 120.472656 C 46.621094 120.363281 46.542969 120.21875 46.585938 120.148438 C 46.675781 119.996094 46.808594 119.855469 46.953125 119.75 C 49.660156 117.78125 54.179688 118.6875 55.042969 122.886719 C 55.101562 123.160156 55.09375 123.445312 55.113281 123.726562 " fill-opacity="1" fill-rule="nonzero"/><path fill="rgb(51.759338%, 43.528748%, 74.508667%)" d="M 34.941406 142.328125 C 35.019531 140.984375 35.320312 139.75 36.40625 138.875 C 37.542969 137.953125 38.871094 137.890625 40.222656 138.261719 C 41.953125 138.738281 43.347656 139.6875 44.15625 141.339844 C 44.304688 141.636719 44.316406 142.015625 44.339844 142.359375 C 44.34375 142.449219 44.15625 142.558594 44.058594 142.65625 C 44.023438 142.539062 43.953125 142.417969 43.960938 142.304688 C 44.023438 141.574219 43.636719 141.027344 43.195312 140.53125 C 42.085938 139.289062 40.683594 138.519531 39.019531 138.464844 C 37.289062 138.410156 35.898438 139.128906 35.476562 141.375 C 35.226562 142.703125 35.472656 143.988281 36.0625 145.191406 C 36.664062 146.414062 38.007812 147.121094 39.355469 146.976562 C 40.738281 146.832031 41.882812 145.871094 42.1875 144.601562 C 42.492188 143.335938 41.425781 141.65625 40.144531 141.429688 C 39.523438 141.316406 38.984375 141.519531 38.625 142.046875 C 38.246094 142.601562 38.136719 143.21875 38.464844 143.84375 C 38.679688 144.253906 39.121094 144.285156 39.445312 143.9375 C 39.523438 143.855469 39.566406 143.734375 39.652344 143.667969 C 39.734375 143.605469 39.851562 143.585938 39.953125 143.546875 C 39.964844 143.660156 40.015625 143.789062 39.976562 143.878906 C 39.765625 144.355469 39.28125 144.628906 38.816406 144.550781 C 38.367188 144.476562 38.015625 144.078125 37.929688 143.542969 C 37.773438 142.589844 38.136719 141.710938 38.882812 141.265625 C 39.558594 140.863281 40.523438 140.960938 41.265625 141.511719 C 43.304688 143.027344 43.011719 145.878906 40.710938 146.96875 C 38.410156 148.0625 36 146.925781 35.316406 144.398438 C 35.136719 143.722656 35.0625 143.019531 34.941406 142.328125 " fill-opacity="1" fill-rule="nonzero"/><path fill="rgb(51.759338%, 43.528748%, 74.508667%)" d="M 94.917969 140.027344 C 94.910156 141.800781 94.296875 143.003906 93.21875 143.964844 C 92.082031 144.984375 90.480469 145.046875 88.910156 144.199219 C 87.882812 143.640625 87.222656 142.835938 87.042969 141.644531 C 86.773438 139.828125 88.285156 138.140625 90.128906 138.230469 C 91.90625 138.320312 93.066406 139.542969 92.941406 141.195312 C 92.890625 141.914062 92.332031 142.636719 91.695312 142.808594 C 90.980469 143.003906 90.113281 142.691406 89.707031 142.089844 C 89.453125 141.714844 89.476562 141.195312 89.757812 140.871094 C 90.03125 140.558594 90.441406 140.445312 90.789062 140.632812 C 90.933594 140.710938 91.074219 140.867188 91.132812 141.023438 C 91.167969 141.117188 91.046875 141.269531 90.996094 141.394531 C 90.90625 141.320312 90.777344 141.261719 90.738281 141.167969 C 90.613281 140.839844 90.386719 140.9375 90.195312 141.039062 C 89.875 141.210938 89.847656 141.632812 90.105469 141.953125 C 90.472656 142.40625 91.195312 142.59375 91.71875 142.371094 C 92.238281 142.152344 92.601562 141.4375 92.554688 140.832031 C 92.429688 139.226562 91.183594 138.71875 90.191406 138.617188 C 89 138.5 87.835938 139.363281 87.523438 140.53125 C 87.207031 141.726562 87.679688 142.9375 88.726562 143.621094 C 89.621094 144.203125 90.589844 144.511719 91.65625 144.3125 C 92.640625 144.132812 93.292969 143.476562 93.808594 142.664062 C 94.492188 141.589844 94.695312 140.433594 94.386719 139.1875 C 93.914062 137.320312 91.492188 136.070312 89.738281 136.792969 C 89.640625 136.835938 89.503906 136.796875 89.386719 136.792969 C 89.457031 136.675781 89.503906 136.496094 89.609375 136.453125 C 90.367188 136.144531 91.148438 136.121094 91.929688 136.359375 C 93.492188 136.835938 95 138.125 94.917969 140.027344 " fill-opacity="1" fill-rule="nonzero"/><path fill="rgb(51.759338%, 43.528748%, 74.508667%)" d="M 106.996094 128.324219 C 108.578125 128.40625 109.894531 129.058594 111 130.171875 C 111.144531 130.316406 111.253906 130.507812 111.339844 130.699219 C 111.371094 130.761719 111.28125 130.882812 111.246094 130.976562 C 111.167969 130.9375 111.0625 130.917969 111.019531 130.851562 C 110.203125 129.632812 108.984375 129.070312 107.613281 128.769531 C 106.644531 128.558594 105.753906 128.78125 104.972656 129.371094 C 103.972656 130.121094 103.550781 131.554688 103.957031 132.796875 C 104.320312 133.921875 105.003906 134.816406 105.984375 135.480469 C 107.101562 136.242188 108.132812 136.109375 109.042969 135.105469 C 110.199219 133.828125 109.941406 131.929688 108.511719 131.203125 C 107.367188 130.617188 105.980469 131.050781 105.578125 132.125 C 105.363281 132.6875 105.460938 133.132812 105.859375 133.410156 C 106.292969 133.71875 107.09375 133.722656 107.445312 133.390625 C 107.554688 133.289062 107.589844 133.109375 107.65625 132.964844 C 107.496094 132.914062 107.335938 132.855469 107.175781 132.816406 C 106.988281 132.773438 106.703125 133.0625 106.632812 132.695312 C 106.625 132.636719 106.960938 132.460938 107.15625 132.421875 C 107.527344 132.347656 107.898438 132.425781 108.03125 132.824219 C 108.164062 133.21875 107.964844 133.535156 107.632812 133.765625 C 107.050781 134.167969 106.070312 134.121094 105.527344 133.664062 C 105.058594 133.269531 104.976562 132.761719 105.128906 132.207031 C 105.539062 130.6875 107.410156 130.054688 108.859375 130.929688 C 110.53125 131.9375 110.625 134.316406 109.046875 135.667969 C 108.066406 136.511719 106.921875 136.601562 105.851562 135.875 C 104.601562 135.027344 103.679688 133.914062 103.464844 132.382812 C 103.09375 129.714844 105.152344 128.210938 106.996094 128.324219 " fill-opacity="1" fill-rule="nonzero"/><g clip-path="url(#id3)"><path fill="rgb(51.759338%, 43.528748%, 74.508667%)" d="M 56.472656 141.550781 C 58.734375 141.441406 60.480469 143.441406 60.84375 145.191406 C 61.359375 147.695312 59.167969 149.640625 56.59375 148.964844 C 55.617188 148.710938 54.835938 148.21875 54.648438 147.144531 C 54.457031 146.046875 54.949219 145.136719 55.976562 144.613281 C 56.71875 144.234375 57.480469 144.128906 58.246094 144.539062 C 58.644531 144.753906 58.914062 145.058594 58.902344 145.542969 C 58.890625 146.039062 58.613281 146.355469 58.1875 146.546875 C 58.066406 146.601562 57.890625 146.582031 57.761719 146.535156 C 57.707031 146.515625 57.65625 146.28125 57.691406 146.253906 C 57.78125 146.179688 57.9375 146.191406 58.039062 146.128906 C 58.1875 146.035156 58.394531 145.925781 58.421875 145.789062 C 58.464844 145.582031 58.460938 145.242188 58.335938 145.144531 C 58.058594 144.929688 57.699219 144.734375 57.363281 144.714844 C 56.410156 144.652344 55.660156 145.078125 55.195312 145.914062 C 54.789062 146.640625 54.964844 147.554688 55.609375 148.054688 C 57.164062 149.257812 59.839844 148.800781 60.4375 146.617188 C 60.667969 145.785156 60.480469 144.988281 60.070312 144.257812 C 59.253906 142.789062 58.066406 141.835938 56.296875 141.929688 C 55.683594 141.964844 55.066406 142.195312 54.472656 142.398438 C 54.257812 142.46875 54.105469 142.726562 53.914062 142.886719 C 53.84375 142.949219 53.742188 142.980469 53.65625 143.027344 C 53.632812 142.917969 53.558594 142.761719 53.605469 142.707031 C 53.785156 142.480469 53.972656 142.226562 54.21875 142.089844 C 54.917969 141.703125 55.683594 141.511719 56.472656 141.550781 " fill-opacity="1" fill-rule="nonzero"/></g><g clip-path="url(#id4)"><path fill="rgb(51.759338%, 43.528748%, 74.508667%)" d="M 119.347656 149.691406 C 119.417969 149.679688 119.484375 149.671875 119.554688 149.664062 C 119.554688 149.664062 119.554688 149.664062 119.558594 149.660156 C 119.550781 149.621094 119.546875 149.578125 119.53125 149.539062 C 118.429688 146.792969 114.578125 145.25 111.875 146.445312 C 110.648438 146.992188 110.054688 147.949219 109.957031 149.242188 C 109.945312 149.382812 109.914062 149.570312 109.996094 149.679688 C 110.121094 149.679688 110.242188 149.679688 110.363281 149.683594 C 110.359375 149.507812 110.351562 149.351562 110.367188 149.195312 C 110.449219 148.332031 110.757812 147.585938 111.523438 147.097656 C 112.351562 146.570312 113.289062 146.351562 114.234375 146.429688 C 116.359375 146.613281 118.042969 147.5625 119.097656 149.488281 C 119.144531 149.574219 119.246094 149.632812 119.347656 149.691406 " fill-opacity="1" fill-rule="nonzero"/></g><g clip-path="url(#id5)"><path fill="rgb(51.759338%, 43.528748%, 74.508667%)" d="M 113.03125 149.742188 C 113.703125 148.109375 116.15625 147.871094 117.234375 149.691406 C 117.046875 149.613281 116.816406 149.574219 116.675781 149.445312 C 115.699219 148.535156 114.460938 148.558594 113.511719 149.503906 C 113.390625 149.625 113.191406 149.664062 113.03125 149.742188 " fill-opacity="1" fill-rule="nonzero"/></g><path fill="rgb(90.589905%, 53.729248%, 44.309998%)" d="M 74.601562 98.277344 C 74.316406 98.277344 74.035156 98.277344 73.75 98.277344 C 73.671875 98.253906 73.59375 98.230469 73.515625 98.210938 C 72.648438 98.023438 71.746094 97.933594 70.917969 97.636719 C 68.222656 96.671875 66.246094 94.789062 64.648438 92.472656 C 63.175781 90.335938 62.199219 87.972656 61.546875 85.46875 C 61.480469 85.214844 61.378906 85.117188 61.113281 85.054688 C 60.792969 84.980469 60.476562 84.820312 60.203125 84.632812 C 59.515625 84.152344 59.050781 83.472656 58.683594 82.734375 C 57.863281 81.082031 57.480469 79.351562 57.957031 77.53125 C 58.324219 76.117188 59.253906 75.675781 60.621094 76.164062 C 60.644531 76.171875 60.675781 76.164062 60.71875 76.164062 C 60.753906 75.875 60.796875 75.585938 60.824219 75.296875 C 61.128906 72.269531 61.894531 69.363281 63.242188 66.628906 C 64.519531 64.046875 66.203125 61.785156 68.632812 60.167969 C 71.0625 58.550781 73.710938 57.933594 76.585938 58.660156 C 79.027344 59.277344 80.980469 60.683594 82.609375 62.558594 C 85.207031 65.554688 86.605469 69.101562 87.335938 72.945312 C 87.546875 74.058594 87.660156 75.195312 87.824219 76.347656 C 87.980469 76.265625 88.136719 76.175781 88.300781 76.105469 C 89.125 75.738281 89.898438 75.921875 90.394531 76.65625 C 90.621094 77 90.824219 77.40625 90.886719 77.808594 C 91.273438 80.214844 90.660156 82.363281 89.058594 84.210938 C 88.539062 84.804688 87.878906 85.175781 87.03125 85.101562 C 86.984375 85.25 86.945312 85.382812 86.90625 85.515625 C 86.117188 88.449219 84.910156 91.179688 82.984375 93.554688 C 81.320312 95.605469 79.3125 97.191406 76.71875 97.898438 C 76.03125 98.089844 75.308594 98.15625 74.601562 98.277344 " fill-opacity="1" fill-rule="nonzero"/><path fill="rgb(1.959229%, 2.749634%, 2.749634%)" d="M 64.253906 75.835938 C 64.097656 75.824219 63.96875 75.824219 63.847656 75.792969 C 63.535156 75.722656 63.441406 75.476562 63.640625 75.226562 C 63.738281 75.109375 63.867188 75.011719 64 74.9375 C 65.683594 74.003906 67.476562 73.390625 69.371094 73.0625 C 69.414062 73.058594 69.460938 73.042969 69.496094 73.058594 C 69.695312 73.136719 69.890625 73.226562 70.085938 73.316406 C 69.984375 73.5 69.925781 73.757812 69.769531 73.855469 C 69.25 74.167969 68.722656 74.488281 68.15625 74.6875 C 67 75.097656 65.820312 75.429688 64.644531 75.785156 C 64.511719 75.828125 64.367188 75.824219 64.253906 75.835938 " fill-opacity="1" fill-rule="nonzero"/><path fill="rgb(1.959229%, 2.749634%, 2.749634%)" d="M 84.796875 76.363281 C 84.230469 76.179688 83.683594 76.035156 83.164062 75.828125 C 81.851562 75.308594 80.535156 74.773438 79.414062 73.890625 C 79.230469 73.746094 79.152344 73.464844 79.027344 73.246094 C 79.285156 73.183594 79.570312 73.019531 79.792969 73.074219 C 81.660156 73.546875 83.386719 74.339844 84.976562 75.421875 C 85.011719 75.445312 85.058594 75.464844 85.074219 75.5 C 85.167969 75.6875 85.332031 75.890625 85.3125 76.066406 C 85.296875 76.179688 84.996094 76.253906 84.796875 76.363281 " fill-opacity="1" fill-rule="nonzero"/><path fill="rgb(1.959229%, 2.749634%, 2.749634%)" d="M 64.238281 78.679688 C 64.625 77.714844 66.003906 76.914062 67.144531 76.921875 C 68.167969 76.925781 69.167969 77.535156 69.527344 78.433594 C 67.710938 77.460938 65.96875 77.542969 64.238281 78.679688 " fill-opacity="1" fill-rule="nonzero"/><path fill="rgb(1.959229%, 2.749634%, 2.749634%)" d="M 78.644531 78.542969 C 79.023438 77.601562 80.039062 76.996094 81.082031 77.003906 C 82.210938 77.015625 83.566406 77.816406 83.933594 78.746094 C 83.101562 78.253906 82.289062 77.878906 81.351562 77.847656 C 80.410156 77.816406 79.542969 78.039062 78.644531 78.542969 " fill-opacity="1" fill-rule="nonzero"/><path fill="rgb(1.568604%, 2.349854%, 2.349854%)" d="M 73.410156 85.230469 C 73.042969 85.074219 72.667969 84.933594 72.3125 84.753906 C 72.230469 84.710938 72.222656 84.535156 72.179688 84.421875 C 72.292969 84.433594 72.429688 84.40625 72.515625 84.464844 C 73.25 84.949219 74.019531 84.898438 74.816406 84.65625 C 74.984375 84.605469 75.179688 84.640625 75.363281 84.636719 C 75.363281 84.695312 75.363281 84.75 75.363281 84.808594 C 74.96875 84.949219 74.570312 85.089844 74.175781 85.230469 C 73.921875 85.230469 73.667969 85.230469 73.410156 85.230469 " fill-opacity="1" fill-rule="nonzero"/><path fill="rgb(1.568604%, 2.349854%, 2.349854%)" d="M 72.636719 81.726562 C 72.667969 81.359375 72.714844 80.988281 72.726562 80.617188 C 72.746094 80.125 72.734375 79.632812 72.757812 79.144531 C 72.761719 79.046875 72.863281 78.953125 72.921875 78.855469 C 72.984375 78.9375 73.101562 79.015625 73.097656 79.09375 C 73.070312 79.929688 73.027344 80.769531 72.96875 81.605469 C 72.964844 81.675781 72.835938 81.734375 72.765625 81.800781 C 72.722656 81.777344 72.679688 81.753906 72.636719 81.726562 " fill-opacity="1" fill-rule="nonzero"/><path fill="rgb(1.959229%, 2.749634%, 2.749634%)" d="M 74.136719 91.914062 C 72.28125 91.886719 70.882812 91 69.820312 89.542969 C 69.507812 89.113281 69.292969 88.613281 69.019531 88.15625 C 68.949219 88.039062 68.832031 87.925781 68.710938 87.863281 C 68.445312 87.734375 68.152344 87.660156 67.890625 87.523438 C 67.78125 87.46875 67.722656 87.316406 67.640625 87.210938 C 67.765625 87.203125 67.910156 87.148438 68.011719 87.191406 C 69.3125 87.746094 70.683594 88.003906 72.082031 88.117188 C 74.964844 88.34375 77.804688 88.109375 80.566406 87.1875 C 80.648438 87.160156 80.730469 87.109375 80.808594 87.113281 C 80.90625 87.117188 81.007812 87.160156 81.105469 87.191406 C 81.042969 87.28125 80.976562 87.371094 80.914062 87.460938 C 80.90625 87.472656 80.890625 87.480469 80.878906 87.480469 C 80.023438 87.558594 79.664062 88.191406 79.246094 88.828125 C 78.207031 90.402344 76.824219 91.539062 74.898438 91.871094 C 74.8125 91.886719 74.730469 91.910156 74.648438 91.910156 C 74.476562 91.917969 74.308594 91.914062 74.136719 91.914062 " fill-opacity="1" fill-rule="nonzero"/><path fill="rgb(100%, 100%, 100%)" d="M 69.265625 87.65625 C 72.777344 88.464844 76.179688 88.332031 79.578125 87.507812 C 79.46875 88.433594 78.765625 88.605469 78.078125 88.753906 C 75.34375 89.355469 72.621094 89.246094 69.902344 88.621094 C 69.375 88.5 69.460938 88.066406 69.265625 87.65625 " fill-opacity="1" fill-rule="nonzero"/><path fill="rgb(90.19928%, 32.548523%, 16.079712%)" d="M 71.234375 90.949219 C 72.878906 90.046875 75.570312 90.148438 76.769531 91.144531 C 75.421875 92.207031 73.113281 92.40625 71.234375 90.949219 " fill-opacity="1" fill-rule="nonzero"/><g clip-path="url(#id6)"><path fill="rgb(1.959229%, 2.749634%, 2.749634%)" d="M 101.394531 117.667969 C 99.183594 128.265625 98.433594 138.925781 98.730469 149.683594 L 99.050781 149.683594 C 99.082031 145.222656 99 140.753906 99.308594 136.292969 C 99.394531 135.027344 99.46875 133.761719 99.589844 132.503906 C 99.726562 131.085938 99.886719 129.675781 100.074219 128.265625 C 100.328125 126.328125 100.59375 124.390625 100.898438 122.460938 C 101.144531 120.894531 101.457031 119.339844 101.742188 117.757812 C 101.632812 117.726562 101.527344 117.703125 101.394531 117.667969 " fill-opacity="1" fill-rule="nonzero"/></g><path fill="rgb(1.959229%, 2.749634%, 2.749634%)" d="M 46.695312 113.390625 C 47.105469 114.921875 47.527344 116.445312 47.921875 117.976562 C 48.777344 121.320312 49.410156 124.699219 49.820312 128.125 C 49.917969 128.933594 50.03125 129.742188 50.136719 130.550781 C 50.136719 130.566406 50.144531 130.582031 50.140625 130.59375 C 50.089844 130.742188 50.039062 130.894531 49.992188 131.046875 C 49.90625 130.914062 49.765625 130.792969 49.742188 130.652344 C 49.660156 130.179688 49.613281 129.703125 49.5625 129.226562 C 49.085938 124.871094 48.253906 120.585938 47.089844 116.359375 C 46.867188 115.546875 46.65625 114.730469 46.46875 113.910156 C 46.429688 113.742188 46.5 113.546875 46.519531 113.367188 C 46.578125 113.375 46.636719 113.382812 46.695312 113.390625 " fill-opacity="1" fill-rule="nonzero"/><g clip-path="url(#id7)"><path fill="rgb(1.959229%, 2.749634%, 2.749634%)" d="M 50.292969 149.578125 L 50.6875 149.578125 C 51.058594 143.746094 51.039062 137.945312 50.453125 132.113281 C 50.316406 132.128906 50.199219 132.144531 50.0625 132.160156 C 50.65625 137.976562 50.699219 143.769531 50.292969 149.578125 " fill-opacity="1" fill-rule="nonzero"/></g><path fill="rgb(1.959229%, 2.749634%, 2.749634%)" d="M 102.015625 116.226562 C 101.960938 116.09375 101.839844 115.945312 101.867188 115.835938 C 102.175781 114.566406 102.507812 113.304688 102.835938 112.042969 C 102.886719 112.03125 102.941406 112.023438 102.992188 112.015625 C 103.039062 112.175781 103.152344 112.355469 103.117188 112.5 C 102.8125 113.726562 102.484375 114.945312 102.160156 116.164062 C 102.109375 116.183594 102.0625 116.207031 102.015625 116.226562 " fill-opacity="1" fill-rule="nonzero"/><path fill="rgb(91.758728%, 81.959534%, 89.408875%)" d="M 61.8125 71.570312 C 61.707031 70.480469 61.847656 69.496094 62.0625 68.519531 C 63.09375 63.839844 66.820312 60.289062 71.570312 59.574219 C 76.5625 58.828125 80.632812 60.613281 83.933594 64.308594 C 85.371094 65.917969 86.300781 67.804688 86.683594 69.925781 C 86.84375 70.792969 86.84375 71.6875 86.894531 72.570312 C 86.902344 72.699219 86.792969 72.828125 86.742188 72.960938 C 86.632812 72.863281 86.488281 72.789062 86.429688 72.671875 C 85.667969 71.175781 84.742188 69.796875 83.59375 68.578125 C 81.375 66.21875 78.710938 64.65625 75.464844 64.238281 C 72.078125 63.800781 69.035156 64.742188 66.308594 66.75 C 65.011719 67.703125 63.914062 68.855469 62.976562 70.160156 C 62.671875 70.582031 62.359375 71 62.042969 71.414062 C 62.007812 71.460938 61.9375 71.488281 61.8125 71.570312 " fill-opacity="1" fill-rule="nonzero"/><g clip-path="url(#id8)"><path fill="rgb(48.239136%, 55.288696%, 81.17981%)" d="M 87.273438 80.25 C 87.230469 79.65625 87.167969 78.742188 87.101562 77.828125 C 87.015625 76.636719 86.980469 75.4375 86.832031 74.25 C 86.371094 70.515625 84.828125 67.320312 82.007812 64.769531 C 78.003906 61.148438 72.238281 60.753906 67.796875 63.816406 C 65.261719 65.566406 63.65625 68.015625 62.570312 70.835938 C 61.792969 72.851562 61.421875 74.945312 61.261719 77.097656 C 61.113281 79.003906 61.074219 80.898438 61.304688 82.792969 C 61.6875 85.945312 62.707031 88.898438 64.308594 91.632812 C 64.871094 92.589844 65.503906 93.53125 66.25 94.34375 C 67.851562 96.089844 69.890625 97.167969 72.144531 97.863281 C 73.320312 98.226562 74.496094 98.324219 75.691406 98.003906 C 76.988281 97.660156 78.328125 97.371094 79.441406 96.601562 C 81.554688 95.140625 83.351562 93.335938 84.636719 91.101562 C 86.507812 87.847656 87.207031 84.285156 87.273438 80.25 Z M 91.289062 102.484375 C 97.570312 103.132812 100.78125 107.542969 101.265625 110.445312 C 100.308594 109.734375 99.371094 109.019531 98.414062 108.335938 C 97.527344 107.703125 96.269531 107.585938 95.316406 108.246094 C 94.59375 108.746094 94.015625 109.359375 93.566406 110.117188 C 91.824219 113.0625 89.832031 115.828125 87.414062 118.269531 C 85.179688 120.527344 82.699219 122.433594 79.679688 123.554688 C 77.90625 124.210938 76.074219 124.507812 74.191406 124.351562 C 72.347656 124.195312 70.660156 123.515625 69.109375 122.527344 C 67.832031 121.710938 66.648438 120.777344 65.605469 119.671875 C 65.472656 119.53125 65.222656 119.453125 65.019531 119.445312 C 60.195312 119.175781 55.539062 118.253906 51.199219 116.046875 C 49.667969 115.269531 48.230469 114.34375 46.96875 113.171875 C 46.261719 112.511719 46.21875 111.417969 46.804688 110.636719 C 47.636719 109.519531 48.683594 108.734375 50.050781 108.40625 C 50.261719 108.355469 50.375 108.265625 50.40625 108.019531 C 50.613281 106.59375 51.898438 105.144531 53.347656 104.914062 C 54.46875 104.734375 55.027344 104.214844 55.3125 103.117188 C 55.679688 101.714844 56.445312 100.511719 57.742188 99.722656 C 57.828125 99.671875 57.875 99.488281 57.867188 99.371094 C 57.765625 97.570312 57.613281 95.773438 57.554688 93.972656 C 57.503906 92.449219 57.570312 90.921875 57.5625 89.398438 C 57.554688 87.308594 57.222656 85.25 56.953125 83.183594 C 56.738281 81.539062 56.671875 79.875 56.613281 78.214844 C 56.5625 76.734375 56.550781 75.246094 56.636719 73.769531 C 56.792969 71.070312 57.125 68.386719 57.832031 65.765625 C 58.746094 62.363281 60.730469 59.652344 63.332031 57.351562 C 64.460938 56.355469 65.710938 55.527344 67.109375 54.957031 C 69.050781 54.160156 71.058594 53.636719 73.160156 53.453125 C 76.558594 53.160156 79.664062 54.109375 82.632812 55.644531 C 87.496094 58.164062 90.234375 62.257812 91.320312 67.511719 C 91.625 68.996094 91.71875 70.527344 91.84375 72.042969 C 91.933594 73.050781 91.929688 74.070312 91.9375 75.085938 C 91.957031 78.832031 91.265625 82.441406 89.78125 85.890625 C 89.015625 87.671875 88.257812 89.457031 87.46875 91.230469 C 87.351562 91.496094 87.480469 91.617188 87.605469 91.777344 C 88.214844 92.558594 88.789062 93.355469 88.984375 94.359375 C 89.125 95.085938 89.085938 95.796875 88.78125 96.46875 C 88.476562 97.148438 88.132812 97.8125 87.777344 98.46875 C 87.402344 99.160156 87.414062 99.230469 88.15625 99.53125 C 88.480469 99.664062 88.808594 99.800781 89.136719 99.921875 C 90.332031 100.371094 91.066406 101.203125 91.289062 102.484375 " fill-opacity="1" fill-rule="nonzero"/></g><path fill="rgb(1.959229%, 2.749634%, 2.749634%)" d="M 95.941406 107.890625 C 95.191406 108.191406 94.535156 108.644531 94.039062 109.273438 C 93 110.589844 91.964844 111.910156 90.996094 113.28125 C 89.671875 115.152344 88.28125 116.964844 86.652344 118.582031 C 84.742188 120.480469 82.625 122.089844 80.128906 123.148438 C 76.761719 124.570312 73.390625 124.683594 70.054688 123.058594 C 67.359375 121.746094 65.359375 119.65625 63.71875 117.203125 C 61.621094 114.074219 60.234375 110.625 59.339844 106.988281 C 58.785156 104.734375 58.417969 102.4375 57.964844 100.160156 C 57.925781 99.980469 57.878906 99.800781 57.828125 99.621094 C 57.761719 99.722656 57.679688 99.804688 57.570312 99.878906 C 57.574219 99.910156 57.578125 99.941406 57.582031 99.96875 C 57.660156 100.570312 57.746094 101.171875 57.839844 101.769531 C 58.484375 105.941406 59.535156 109.992188 61.351562 113.824219 C 62.71875 116.707031 64.433594 119.347656 66.890625 121.433594 C 70.449219 124.457031 74.480469 125.414062 78.984375 124.003906 C 81.917969 123.085938 84.347656 121.332031 86.554688 119.242188 C 88.710938 117.195312 90.414062 114.785156 92.128906 112.382812 C 92.929688 111.257812 93.753906 110.121094 94.738281 109.167969 C 96.195312 107.757812 97.417969 107.703125 98.882812 108.871094 C 99.066406 109.015625 99.261719 109.144531 99.519531 109.332031 C 98.800781 107.898438 97.316406 107.328125 95.941406 107.890625 " fill-opacity="1" fill-rule="nonzero"/><path fill="rgb(1.959229%, 2.749634%, 2.749634%)" d="M 87.546875 99.289062 C 87.574219 99.308594 87.660156 99.378906 87.738281 99.445312 C 87.71875 99.492188 87.71875 99.523438 87.703125 99.539062 C 84.988281 101.8125 81.867188 103.148438 78.347656 103.53125 C 73.4375 104.070312 69.03125 102.785156 65.097656 99.824219 C 64.902344 99.675781 64.632812 99.535156 64.898438 99.277344 C 72.441406 104.558594 79.941406 104.703125 87.546875 99.289062 " fill-opacity="1" fill-rule="nonzero"/><path fill="rgb(1.959229%, 2.749634%, 2.749634%)" d="M 63.589844 110.664062 C 64.539062 111.386719 65.472656 112.21875 66.515625 112.875 C 68.550781 114.148438 70.800781 114.613281 73.199219 114.402344 C 76.476562 114.109375 79.339844 112.75 82.015625 110.949219 C 83.105469 110.21875 84.117188 109.375 85.164062 108.582031 C 85.265625 108.507812 85.363281 108.433594 85.464844 108.359375 C 85.757812 108.589844 85.605469 108.75 85.417969 108.90625 C 83.292969 110.675781 81.042969 112.246094 78.5 113.378906 C 76.488281 114.273438 74.402344 114.84375 72.195312 114.847656 C 69.613281 114.855469 67.277344 114.070312 65.21875 112.503906 C 64.59375 112.027344 63.917969 111.585938 63.636719 110.789062 C 63.613281 110.722656 63.589844 110.660156 63.589844 110.664062 " fill-opacity="1" fill-rule="nonzero"/><path fill="rgb(1.959229%, 2.749634%, 2.749634%)" d="M 59.058594 115.292969 C 55.722656 114.023438 52.65625 112.453125 50.503906 109.53125 C 50.3125 109.273438 50.15625 108.984375 49.980469 108.710938 C 49.839844 108.492188 49.878906 108.347656 50.136719 108.277344 C 50.164062 108.289062 50.203125 108.292969 50.214844 108.3125 C 51.535156 110.710938 53.621094 112.265625 55.984375 113.5 C 56.832031 113.945312 57.726562 114.304688 58.609375 114.679688 C 58.878906 114.796875 59.046875 114.933594 59.058594 115.292969 " fill-opacity="1" fill-rule="nonzero"/><path fill="rgb(1.959229%, 2.749634%, 2.749634%)" d="M 87.648438 106.664062 C 87.664062 106.53125 87.636719 106.355469 87.710938 106.273438 C 88.777344 105.109375 89.851562 103.957031 90.9375 102.8125 C 91.019531 102.722656 91.183594 102.710938 91.3125 102.664062 C 91.296875 102.789062 91.328125 102.957031 91.261719 103.035156 C 90.136719 104.277344 89.003906 105.507812 87.871094 106.742188 C 87.796875 106.71875 87.722656 106.691406 87.648438 106.664062 " fill-opacity="1" fill-rule="nonzero"/><path fill="rgb(1.959229%, 2.749634%, 2.749634%)" d="M 59.980469 92.6875 C 60.128906 92.921875 60.273438 93.15625 60.417969 93.386719 C 61.125 94.507812 61.828125 95.628906 62.542969 96.742188 C 62.726562 97.027344 62.746094 97.011719 62.519531 97.359375 C 62.25 97.019531 61.953125 96.714844 61.738281 96.359375 C 61.121094 95.351562 60.527344 94.328125 59.945312 93.300781 C 59.855469 93.140625 59.875 92.925781 59.84375 92.734375 C 59.890625 92.71875 59.9375 92.703125 59.980469 92.6875 " fill-opacity="1" fill-rule="nonzero"/><path fill="rgb(1.959229%, 2.749634%, 2.749634%)" d="M 83.5 94.570312 C 83.617188 94.347656 83.660156 94.167969 83.773438 94.074219 C 84.851562 93.164062 85.945312 92.269531 87.03125 91.371094 C 87.09375 91.320312 87.179688 91.308594 87.378906 91.222656 C 87.304688 91.46875 87.304688 91.667969 87.207031 91.746094 C 86.066406 92.691406 84.910156 93.617188 83.753906 94.542969 C 83.738281 94.558594 83.699219 94.550781 83.5 94.570312 " fill-opacity="1" fill-rule="nonzero"/><g clip-path="url(#id9)"><path fill="rgb(51.759338%, 43.528748%, 74.508667%)" d="M 75.636719 149.621094 C 75.65625 149.601562 75.675781 149.585938 75.691406 149.566406 C 75.882812 149.324219 76.011719 149.027344 76.21875 148.804688 C 77.824219 147.082031 80.722656 147.398438 82.085938 149.449219 C 82.128906 149.515625 82.171875 149.574219 82.21875 149.621094 L 82.617188 149.621094 C 82.039062 148.207031 80.175781 147.164062 78.425781 147.296875 C 77.300781 147.382812 75.742188 148.265625 75.300781 149.621094 L 75.636719 149.621094 " fill-opacity="1" fill-rule="nonzero"/></g><path fill="rgb(94.898987%, 45.098877%, 33.729553%)" d="M 79.597656 82.3125 C 79.816406 83.242188 81.3125 83.6875 82.9375 83.308594 C 84.566406 82.925781 85.707031 81.863281 85.488281 80.933594 C 85.269531 80.003906 83.773438 79.558594 82.148438 79.9375 C 80.519531 80.316406 79.378906 81.378906 79.597656 82.3125 " fill-opacity="1" fill-rule="nonzero"/><path fill="rgb(94.898987%, 45.098877%, 33.729553%)" d="M 68.4375 82.175781 C 68.21875 83.109375 66.722656 83.554688 65.09375 83.171875 C 63.46875 82.792969 62.324219 81.730469 62.542969 80.800781 C 62.761719 79.867188 64.257812 79.421875 65.886719 79.804688 C 67.515625 80.183594 68.65625 81.246094 68.4375 82.175781 " fill-opacity="1" fill-rule="nonzero"/><g clip-path="url(#id10)"><path fill="rgb(100%, 88.62915%, 57.249451%)" d="M 7.765625 83.675781 C 8.265625 83.605469 8.824219 83.59375 9.308594 83.171875 C 9.679688 82.863281 9.785156 82.515625 10.308594 82.25 C 10.6875 82.058594 10.734375 82.179688 11.058594 82 C 11.628906 81.675781 11.519531 81.257812 12.054688 80.863281 C 12.542969 80.503906 12.792969 80.753906 13.21875 80.394531 C 13.695312 80.011719 13.492188 79.640625 13.898438 79.230469 C 14.5625 78.550781 15.835938 78.777344 16.226562 78.835938 C 16.867188 78.957031 17.367188 79.207031 17.675781 79.410156 C 18.261719 79.113281 18.710938 79.089844 19.007812 79.113281 C 19.472656 79.148438 19.769531 79.339844 20.101562 79.171875 C 20.339844 79.050781 20.46875 78.824219 20.554688 78.621094 C 21.027344 77.519531 20.589844 76.550781 20.851562 75.386719 C 20.875 75.277344 21.183594 73.984375 22.3125 73.207031 C 23.097656 72.65625 23.941406 72.621094 24.726562 72.570312 C 25.675781 72.523438 26.449219 72.679688 26.960938 72.824219 C 26.902344 72.90625 27.804688 71.351562 28.351562 70.679688 C 29.695312 69.0625 32.523438 68.414062 34.636719 69.085938 C 35.542969 69.375 36.3125 69.898438 37.5625 70.773438 C 38.238281 71.242188 38.703125 71.660156 38.941406 71.890625 C 39.285156 72.210938 39.488281 72.441406 39.488281 72.441406 C 40.925781 72.164062 40.996094 72.164062 40.996094 72.164062 C 41.828125 72.09375 43.019531 72.367188 43.742188 73.230469 C 44.550781 74.164062 44.632812 76.046875 44.242188 76.191406 C 44.113281 76.238281 43.980469 75.699219 43.613281 75.6875 C 43.375 75.675781 43.125 75.878906 43.054688 76.105469 C 42.898438 76.609375 43.589844 77.195312 43.730469 77.316406 C 44.335938 77.832031 44.71875 77.722656 45.515625 78.070312 C 47.046875 78.730469 47.699219 80.023438 48.210938 79.757812 C 48.246094 79.746094 48.320312 79.652344 48.484375 79.460938 C 48.890625 78.992188 48.984375 78.777344 49.117188 78.644531 C 49.519531 78.214844 50.566406 78.226562 51.207031 78.667969 C 51.957031 79.171875 51.601562 79.867188 52.46875 80.644531 C 52.992188 81.113281 53.179688 80.921875 53.929688 81.542969 C 54.570312 82.082031 55.046875 82.503906 55.046875 82.503906 C 55.226562 82.3125 55.546875 82.023438 56.007812 81.867188 C 57.019531 81.53125 57.96875 82.09375 58.21875 82.25 C 58.910156 82.660156 58.851562 82.96875 59.597656 83.425781 C 60.074219 83.722656 60.441406 83.808594 61.203125 84.011719 C 61.84375 84.179688 62.785156 84.417969 64.140625 84.777344 C 63.402344 84.816406 62.296875 84.863281 60.929688 84.921875 C 58.457031 85.019531 58.195312 84.996094 56.722656 85.078125 C 54.203125 85.210938 52.917969 85.378906 52.183594 85.484375 C 50.804688 85.6875 50.980469 85.761719 50.433594 85.785156 C 48.34375 85.855469 47.296875 84.898438 46.308594 85.484375 C 45.871094 85.75 46.0625 86.011719 45.503906 86.613281 C 44.707031 87.460938 43.636719 87.59375 42.722656 87.761719 C 38.773438 88.445312 38.574219 89.414062 36.300781 89.222656 C 35.316406 89.140625 35.113281 88.9375 34.425781 88.695312 C 34.425781 88.695312 34.054688 88.5625 33.449219 88.433594 C 32.273438 88.179688 30.050781 88.863281 28.339844 89.019531 C 27.816406 89.066406 25.996094 89.1875 24 88.382812 C 22.679688 87.859375 21.742188 87.113281 21.171875 86.574219 C 21.171875 86.574219 20.125 86.585938 19.339844 86.324219 C 18.152344 85.929688 18.222656 85.425781 17.09375 84.980469 C 16.679688 84.828125 15.429688 84.289062 14.101562 84.597656 C 13.554688 84.730469 13.445312 84.886719 12.722656 85.019531 C 12.175781 85.113281 11.757812 85.101562 11.640625 85.101562 C 10.9375 85.078125 10.449219 84.910156 10.128906 84.816406 C 9.453125 84.609375 8.75 84.621094 7.347656 84.585938 C 6.089844 84.5625 5.066406 84.671875 4.390625 84.777344 C 5.910156 84.035156 7.015625 83.773438 7.765625 83.675781 Z M 7.765625 83.675781 " fill-opacity="1" fill-rule="nonzero"/></g></svg>